<svg width="442" height="375" fill="none" xmlns="http://www.w3.org/2000/svg"><g clip-path="url(#clip0)"><path d="M267.447 268.965s-12.037-62.457-12.104-75.314c-.068-17.796 13.592-24.901 13.592-24.901l-5.275-15.09h29.078l-4.599 14.954s15.283 8.12 13.187 26.594c-3.99 34.51-10.346 73.757-10.346 73.757h-23.533z" fill="#CBF7E3"/><path d="M295.24 175.855h-.338c-.203 0-.541-.068-.947-.068-.812 0-2.096.135-3.516.744-1.488.609-3.044 1.76-4.531 3.451a24.68 24.68 0 00-2.096 2.91c-.677 1.083-1.285 2.301-1.826 3.586a11.171 11.171 0 00-.879 4.263c.067 1.489.608 3.113 1.69 4.264.541.609 1.285 1.082 2.029 1.285.811.203 1.69.203 2.502-.067 1.623-.609 2.975-2.03 3.516-3.79.609-1.759 0-3.722-1.217-5.21-1.217-1.489-3.043-2.504-5.004-2.91-1.961-.338-4.057 0-6.018.744-1.961.745-3.787 1.895-5.41 3.316-3.246 2.774-5.613 6.564-6.357 10.556-.405 1.963-.405 3.993.135 5.887.474 1.895 1.421 3.587 2.841 4.737.676.609 1.555 1.015 2.434 1.083.879.135 1.758-.068 2.502-.474 1.488-.88 2.164-2.639 2.232-4.263 0-.812-.136-1.624-.474-2.301-.338-.676-.811-1.353-1.42-1.827-1.149-1.015-2.569-1.556-3.922-1.827-2.772-.541-5.41.203-7.303 1.286-1.961 1.083-3.381 2.436-4.328 3.722-.947 1.285-1.488 2.436-1.758 3.18l-.406 1.218s.068-.406.338-1.218a11.55 11.55 0 011.691-3.248c.946-1.286 2.367-2.707 4.328-3.857 1.961-1.083 4.598-1.895 7.506-1.353 1.42.27 2.907.812 4.057 1.894.609.542 1.15 1.151 1.488 1.895.338.744.541 1.624.473 2.504 0 1.691-.744 3.586-2.367 4.601a4.177 4.177 0 01-2.705.541 5.223 5.223 0 01-2.569-1.15c-1.488-1.218-2.57-3.045-3.043-4.94-.541-1.962-.541-4.06-.135-6.09.811-4.06 3.178-7.917 6.491-10.759 1.691-1.421 3.517-2.571 5.545-3.383 1.961-.745 4.193-1.083 6.222-.745 2.028.406 3.922 1.489 5.207 3.045.608.812 1.081 1.692 1.352 2.639.27.948.203 2.03-.068 2.91-.608 1.827-1.961 3.384-3.719 3.993-.879.27-1.826.338-2.705.067a4.862 4.862 0 01-2.231-1.421 7.253 7.253 0 01-1.826-4.534c-.068-1.624.338-3.112.879-4.398.541-1.353 1.217-2.504 1.893-3.654.677-1.083 1.353-2.098 2.164-2.977 1.488-1.692 3.179-2.842 4.666-3.451 1.488-.609 2.773-.745 3.584-.677.879.135 1.353.271 1.353.271zM295.984 223.087s.135 1.15-.271 3.18c-.203 1.015-.608 2.233-1.285 3.519-.676 1.285-1.623 2.706-3.043 3.924-1.352 1.218-3.178 2.233-5.342 2.775-2.096.541-4.531.609-6.897-.068-2.367-.677-4.599-2.233-6.222-4.398-1.623-2.098-2.637-4.94-2.366-7.782.135-1.421.608-2.842 1.69-3.857 1.082-1.015 2.637-1.15 3.99-.812 1.285.406 2.434 1.286 3.043 2.436.609 1.218.676 2.571.406 3.789a6.917 6.917 0 01-1.691 3.181 7.53 7.53 0 01-2.772 1.894c-2.029.88-4.125.948-5.951.745-1.826-.203-3.449-.812-4.734-1.489a14.682 14.682 0 01-3.11-2.165c-1.488-1.421-2.029-2.436-2.029-2.436l.135.135c.068.135.203.271.406.474.338.406.879 1.015 1.623 1.691a11.778 11.778 0 003.11 2.03c1.285.609 2.841 1.151 4.666 1.354 1.759.203 3.855.067 5.816-.745.947-.406 1.893-1.015 2.637-1.827s1.285-1.894 1.556-3.045c.27-1.15.202-2.436-.406-3.518-.541-1.083-1.623-1.895-2.84-2.233-1.218-.339-2.638-.203-3.584.676-.947.88-1.488 2.233-1.556 3.587-.203 2.706.744 5.413 2.3 7.511 1.555 2.097 3.719 3.586 6.018 4.263 2.299.676 4.666.609 6.695.135a11.618 11.618 0 005.207-2.707c1.352-1.15 2.366-2.571 3.043-3.789a16.402 16.402 0 001.352-3.451c.27-1.015.338-1.759.338-2.301v-.609l.068-.067zM290.574 252.522c-.068.068-1.285-.609-3.517-1.218-.541-.135-1.149-.338-1.825-.406-.677-.135-1.353-.203-2.097-.338-1.487-.136-3.178-.136-4.936 0a23.93 23.93 0 00-4.801 1.082c-.676.271-1.42.474-2.029.812-.609.271-1.15.542-1.691.812-2.028 1.083-3.11 2.03-3.11 1.963 0 0 .27-.271.744-.677.27-.203.541-.474.946-.744.406-.271.812-.609 1.285-.88a19.405 19.405 0 011.691-.88c.608-.338 1.285-.541 2.028-.812 1.488-.473 3.111-.879 4.869-1.082 1.758-.203 3.449-.136 5.004 0 .744.135 1.488.203 2.164.338.677.135 1.285.338 1.826.474.541.135 1.014.338 1.488.541.406.135.811.338 1.082.474.541.338.879.473.879.541zM288.545 169.562s-.338.27-.946.676c-.609.406-1.556.948-2.773 1.624-2.367 1.286-5.815 2.775-9.805 3.857-3.99 1.083-7.709 1.489-10.414 1.624-1.353.068-2.435.068-3.178 0-.744-.067-1.15-.067-1.15-.135 0 0 .406-.068 1.15-.068.743 0 1.825-.067 3.178-.135 2.705-.135 6.356-.609 10.346-1.692a53.558 53.558 0 009.805-3.721c1.218-.609 2.164-1.083 2.841-1.489.541-.338.879-.541.946-.541zM292.197 154.404c0 .068-.744-.068-2.029-.068a16.33 16.33 0 00-5.342.88c-1.082.338-2.232.88-3.381 1.556a9.777 9.777 0 00-1.691 1.218c-.541.474-1.082.948-1.555 1.489-.473.609-.812 1.286-.947 2.03-.135.744.135 1.556.676 2.098.541.541 1.353.879 2.164 1.082.812.203 1.691.474 2.435.271.811-.203 1.285-.947 1.352-1.759.068-.812-.135-1.624-.473-2.369-.676-1.488-1.961-2.571-3.246-3.248-1.285-.744-2.773-1.015-4.057-1.082-1.353 0-2.57.203-3.652.541-2.164.677-3.719 1.759-4.801 2.504-.541.406-.879.676-1.15.947-.27.203-.406.338-.406.338s.136-.135.339-.406c.27-.203.608-.541 1.149-1.015a16.72 16.72 0 014.801-2.706c1.082-.406 2.367-.609 3.787-.609 1.353.067 2.84.406 4.26 1.082 1.353.745 2.705 1.895 3.449 3.451.406.745.609 1.624.541 2.572-.067.473-.203.947-.473 1.285a2.015 2.015 0 01-1.15.812c-.946.203-1.826-.067-2.705-.27-.811-.271-1.69-.542-2.299-1.218-.676-.609-.947-1.557-.811-2.436.135-.812.541-1.557 1.082-2.166.473-.609 1.082-1.15 1.623-1.556.608-.474 1.149-.88 1.758-1.218 1.217-.677 2.367-1.218 3.516-1.556 2.232-.677 4.125-.812 5.41-.745.676 0 1.15.068 1.488.136.135.067.338.135.338.135z" fill="#43D190"/><path d="M119.257 67v46.366H52.735l-2.407-46.038L119.257 67z" fill="#CBF7E3"/><path d="M50.36 67.317v45.928h66.521V67.317H50.359z" fill="#fff"/><path d="M117.178 113.586H50v-46.53h67.178v46.53zm-66.522-.657h65.866V67.658H50.657v45.271z" fill="#CBF7E3"/><path d="M109.683 73.021H57.549v34.487h52.134V73.021z" fill="#CBF7E3"/><path d="M109.629 73.022h-3.884c-2.517 0-6.127 0-10.723.054-9.19 0-22.21.055-37.527.055l.164-.164v34.487l-.164-.164c19.639 0 37.801 0 52.134.055l-.11.109c.055-10.51.055-19.105.055-25.126 0-3.011 0-5.365.055-6.953V73.57v-.547 2.408c0 1.588 0 3.942.055 6.898 0 6.021.054 14.67.054 25.181v.109h-.109c-14.333 0-32.44 0-52.134.055h-.164v-.164-34.652h.164c15.372.055 28.392.055 37.637.055 4.595 0 8.206.055 10.722.055h3.556c.164.055.219.055.219.055z" fill="#CBF7E3"/><path d="M50.328 67.218c.055-.054.438.274 1.15.767.656.492 1.585 1.204 2.625 1.97.985.822 1.86 1.533 2.516 2.135.602.548.985.931.93.986-.054.055-1.64-1.26-3.665-2.847-2.024-1.642-3.61-2.956-3.556-3.01zM116.85 67.329c.055.054-1.532 1.423-3.501 2.956-1.97 1.587-3.665 2.791-3.72 2.737-.055-.055 1.532-1.424 3.501-2.957 2.024-1.587 3.665-2.791 3.72-2.736z" fill="#CBF7E3"/><path d="M116.795 113.258c-2.462-2.025-4.923-3.996-7.44-6.021l7.44 6.021z" fill="#fff"/><path d="M109.41 107.235c.055-.055 1.751 1.204 3.83 2.901 2.024 1.643 3.665 3.066 3.61 3.121-.054.054-1.75-1.205-3.829-2.902-2.079-1.642-3.665-3.01-3.611-3.12zM50.328 113.257c-.054-.055 1.477-1.369 3.447-2.956 1.97-1.533 3.61-2.737 3.665-2.683.055.055-1.477 1.369-3.446 2.956-1.97 1.533-3.611 2.737-3.666 2.683z" fill="#CBF7E3"/><path d="M68.142 83.825v11.55h32.769v-11.55H68.142z" fill="#E9FAF7"/><path d="M292.197 304.693c0 .068-2.434.135-5.41.135-2.975 0-5.41-.067-5.41-.135 0-.067 2.435-.135 5.41-.135 2.976-.067 5.41 0 5.41.135zM292.941 301.581c0 .067-2.84.134-6.424.134-3.517 0-6.424-.067-6.424-.134 0-.068 2.84-.135 6.424-.135 3.584-.068 6.424.067 6.424.135zM288.816 298.062c0 .067-2.299.135-5.14.135-2.84 0-5.139-.068-5.139-.135 0-.068 2.299-.135 5.139-.135 2.841 0 5.14.067 5.14.135zM290.168 292.445c0 .068-3.11.135-6.897.135-3.787 0-6.898-.067-6.898-.135 0-.067 3.111-.134 6.898-.134 3.854 0 6.897.067 6.897.134zM290.101 289.536c0 .067-3.043.135-6.83.135s-6.83-.068-6.83-.135c0-.068 3.043-.135 6.83-.135 3.787-.068 6.83 0 6.83.135zM289.019 285.882c0 .067-3.246.135-7.236.135-3.99 0-7.236-.068-7.236-.135 0-.068 3.246-.135 7.236-.135 3.99 0 7.236.067 7.236.135zM286.381 281.009c0 .068-2.975.135-6.694.135-3.652 0-6.695-.067-6.695-.135 0-.067 2.976-.134 6.695-.134 3.719-.068 6.694 0 6.694.134zM293.279 308.618c0 .067-2.975.135-6.695.135-3.651 0-6.694-.068-6.694-.135 0-.068 2.975-.135 6.694-.135 3.72-.067 6.695 0 6.695.135zM294.226 314.302c0 .067-2.908.135-6.56.135-3.651 0-6.559-.068-6.559-.135 0-.068 2.908-.135 6.559-.135 3.652 0 6.56.067 6.56.135zM295.308 317.685c0 .068-2.841.135-6.425.135-3.516 0-6.424-.067-6.424-.135 0-.067 2.84-.134 6.424-.134 3.584 0 6.425.067 6.425.134zM298.486 320.933c0 .068-3.178.135-7.1.135-3.923 0-7.101-.067-7.101-.135 0-.067 3.178-.135 7.101-.135 3.922-.067 7.1 0 7.1.135zM299.027 326.076c0 .068-2.84.135-6.357.135-3.516 0-6.356-.067-6.356-.135 0-.067 2.84-.135 6.356-.135 3.517 0 6.357.068 6.357.135zM300.109 328.851c0 .068-2.84.406-6.357.744-3.516.271-6.356.474-6.356.406 0-.067 2.84-.406 6.356-.744 3.517-.338 6.357-.541 6.357-.406zM301.191 332.708c0 .068-3.179.203-7.101.271-3.922.067-7.1 0-7.1-.068s3.178-.203 7.1-.271c3.922 0 7.101 0 7.101.068zM301.394 337.648c0 .067-2.84.406-6.357.744-3.516.271-6.424.474-6.424.406 0-.068 2.84-.406 6.357-.744 3.516-.339 6.424-.474 6.424-.406zM300.785 342.249c0 .068-.676.203-1.758.406-1.082.203-2.57.474-4.26.812-1.623.338-3.111.677-4.193.88-1.082.27-1.758.406-1.758.338s.609-.271 1.69-.541c1.082-.271 2.57-.677 4.193-1.015 1.623-.339 3.178-.609 4.26-.745 1.082-.135 1.758-.135 1.826-.135zM302.881 347.595c0 .067-.676.067-1.826.135-1.081.068-2.637.135-4.327.271-1.691.135-3.246.338-4.328.473-1.082.136-1.758.271-1.826.203 0-.067.676-.203 1.758-.406 1.082-.203 2.637-.473 4.328-.609 1.691-.135 3.246-.203 4.395-.203 1.15.068 1.826.136 1.826.136zM305.045 352.331c0 .068-.744 0-1.893 0-1.15 0-2.773-.067-4.531 0-1.758.068-3.381.203-4.531.271-1.149.068-1.893.135-1.893.135 0-.067.676-.203 1.826-.338 1.149-.135 2.772-.338 4.531-.406 1.758-.068 3.381 0 4.53.068 1.217.067 1.961.203 1.961.27zM305.451 356.392c0 .067-.811 0-2.029-.068a93.006 93.006 0 00-4.936-.135c-1.961 0-3.652.067-4.937.067-1.284.068-2.028.068-2.028.068 0-.068.744-.135 2.028-.271 1.285-.135 3.043-.203 4.937-.203 1.961 0 3.719.136 4.936.271 1.218.135 2.029.271 2.029.271zM306.398 360.181c0 .068-3.043.271-6.762.406-3.72.135-6.763.135-6.763.068 0-.068 3.043-.271 6.763-.406 3.719-.136 6.762-.136 6.762-.068zM306.804 363.361c0 .068-3.043.271-6.898.474-3.787.135-6.897.203-6.897.135 0-.067 3.043-.27 6.897-.473 3.855-.136 6.898-.203 6.898-.136zM309.508 368.842c0 .068-.879 0-2.299 0s-3.381 0-5.613.136c-2.163.135-4.125.338-5.545.541s-2.299.338-2.299.271l.609-.203c.406-.068.947-.203 1.69-.339 1.42-.27 3.382-.541 5.545-.676a53.648 53.648 0 015.613-.068c.744 0 1.285.068 1.691.135.405.136.608.136.608.203zM310.252 372.429c0 .067-3.313.338-7.371.541-4.125.203-7.438.271-7.438.203s3.313-.338 7.371-.541c4.125-.203 7.438-.271 7.438-.203zM59.981 284.19c0 .068-.744.136-1.96.271-1.218.068-2.909.203-4.734.135-1.826 0-3.517-.135-4.734-.27-1.217-.136-1.961-.271-1.961-.271 0-.068.744 0 1.961.068 1.217.067 2.908.135 4.734.135 1.825 0 3.516 0 4.733-.068h1.961zM62.821 280.807c0 .068-3.516.271-7.776.338-4.328.068-7.777.068-7.777 0 0-.067 3.516-.27 7.777-.338 4.328-.136 7.776-.136 7.776 0zM56.465 288.047c0 .068-.812.136-2.164.203a107.67 107.67 0 01-5.275.136c-2.028 0-3.922-.136-5.274-.203-1.353-.136-2.164-.203-2.164-.271s.811 0 2.164 0c1.352.068 3.178.135 5.274.135 2.029 0 3.922 0 5.275-.067 1.352 0 2.164 0 2.164.067zM57.411 293.393c0 .068-3.99.068-8.926 0s-8.926-.271-8.926-.338c0-.068 3.99-.068 8.926 0 4.937.135 8.926.27 8.926.338zM53.49 296.303s-.203.067-.61.135a9.924 9.924 0 01-1.69.135c-1.42.136-3.448.203-5.612.136a92.614 92.614 0 01-5.613-.339 22.893 22.893 0 01-1.69-.203c-.406-.067-.61-.135-.61-.135 0-.068.88 0 2.3.135 1.42.068 3.381.203 5.613.271 2.163.068 4.192 0 5.612-.068 1.42-.067 2.3-.135 2.3-.067zM53.49 300.092c0 .068-.88-.135-2.367-.406-1.42-.271-3.45-.541-5.68-.744-2.232-.203-4.26-.203-5.749-.203-1.487 0-2.366.067-2.366 0 0 0 .203-.068.608-.136.406-.067 1.015-.067 1.758-.135a55.932 55.932 0 015.748.068c2.232.203 4.26.541 5.68.812.745.135 1.285.27 1.691.406.474.27.676.338.676.338zM51.19 304.829s-.27 0-.744-.136a23.693 23.693 0 00-2.096-.406c-1.758-.338-4.125-.812-6.83-1.218-2.705-.406-5.14-.744-6.897-.947-.812-.135-1.556-.203-2.097-.271-.473-.067-.744-.135-.744-.135h.744c.474 0 1.217.068 2.097.135 1.758.136 4.192.474 6.897.88s5.072.947 6.83 1.353c.88.203 1.555.406 2.029.474.54.135.811.271.811.271zM49.026 309.159c0 .068-3.584.068-7.98-.067-4.395-.136-7.979-.271-7.979-.406 0-.068 3.584-.068 7.98.067 4.395.136 7.98.339 7.98.406zM44.157 313.896c0 .068-3.584.136-8.047.136-4.463 0-8.047-.136-8.047-.203 0-.068 3.584-.136 8.047-.136 4.396 0 8.047.068 8.047.203zM42.535 319.174c0 .068-.88-.067-2.232-.203-1.42-.135-3.313-.338-5.477-.473-2.164-.136-4.058-.203-5.478-.271s-2.299-.068-2.299-.135c0 0 .203-.068.609-.068.405 0 .946-.068 1.69-.068 1.42 0 3.314 0 5.478.136a71.04 71.04 0 015.477.541c.676.135 1.285.203 1.623.271.406.203.609.27.609.27zM40.506 322.828s-.203.068-.609.068c-.405 0-1.014.068-1.69.068-1.42 0-3.45 0-5.613-.203-2.164-.136-4.193-.406-5.613-.609-.744-.136-1.285-.203-1.69-.271-.406-.068-.609-.135-.609-.135 0-.068.88.067 2.3.203 1.42.135 3.38.338 5.612.541 2.164.135 4.193.271 5.613.271 1.42 0 2.299 0 2.299.067zM36.584 327.159c0 .068-.744 0-1.894-.135-1.15-.136-2.704-.271-4.463-.406-1.758-.136-3.38-.203-4.53-.203-1.15-.068-1.894-.068-1.894-.136 0-.067.744-.135 1.894-.135s2.772 0 4.53.135c1.758.136 3.381.339 4.463.474 1.15.203 1.894.338 1.894.406zM35.907 332.843c0 .068-.811-.135-2.163-.406-1.353-.27-3.179-.676-5.275-1.082-2.029-.406-3.922-.677-5.275-.88-1.352-.203-2.163-.338-2.163-.406h.608c.406 0 .947.068 1.623.135 1.352.136 3.246.406 5.342.812 2.029.406 3.922.812 5.207 1.151.676.203 1.217.338 1.556.473.338.136.54.203.54.203zM29.483 336.429c0 .068-.676-.067-1.826-.27a67.297 67.297 0 00-4.327-.677c-1.69-.203-3.246-.406-4.396-.474-1.15-.135-1.826-.135-1.826-.203 0-.067.677-.067 1.826 0 1.15.068 2.705.136 4.396.406 1.69.203 3.246.542 4.328.745 1.217.203 1.893.406 1.825.473zM28.401 339.61c0 .068-.811-.068-2.164-.203-1.352-.135-3.178-.406-5.274-.609a111.747 111.747 0 00-5.275-.406c-1.352-.068-2.164-.135-2.164-.203s.812-.068 2.164 0c1.353.068 3.246.135 5.275.338 2.029.203 3.922.474 5.274.677 1.353.203 2.232.338 2.164.406zM26.779 343.535c0 .067-.812 0-2.097 0-1.284 0-3.043-.068-5.004 0-1.96 0-3.719.067-5.004.135-1.285.068-2.028.068-2.096.068 0-.068.811-.136 2.029-.271 1.284-.135 3.043-.203 5.004-.271 1.96 0 3.719.068 5.004.136 1.42 0 2.231.135 2.164.203zM27.184 347.798c0 .067-.676 0-1.758-.068a71.107 71.107 0 00-4.328-.135c-1.69 0-3.178.135-4.328.27-1.082.136-1.758.203-1.758.136 0-.068.676-.203 1.758-.406 1.082-.203 2.638-.339 4.328-.339 1.69 0 3.246.068 4.328.203 1.15.136 1.826.271 1.758.339zM22.045 352.805c0 .068-.676-.135-1.758-.338a69.122 69.122 0 00-4.193-.677c-1.623-.203-3.178-.271-4.26-.338-1.082-.068-1.758-.068-1.758-.068 0-.068.676-.135 1.758-.135 1.082 0 2.637 0 4.26.203 1.69.203 3.11.541 4.193.812 1.15.203 1.826.473 1.758.541zM18.258 358.489c0 .068-3.043.135-6.762 0-3.72-.068-6.762-.203-6.762-.338 0-.068 3.043-.136 6.762 0 3.787.135 6.762.27 6.762.338zM15.012 361.805c0 .067-1.487 0-3.246-.271-1.825-.271-3.245-.541-3.245-.609 0-.068 1.487 0 3.245.271 1.826.27 3.246.541 3.246.609zM16.5 368.233c0 .068-.744-.067-1.893-.27a73.693 73.693 0 00-4.464-.677c-1.758-.271-3.38-.406-4.53-.541-1.15-.136-1.894-.203-1.894-.271s.744-.068 1.894 0 2.772.203 4.53.474c1.759.27 3.381.541 4.463.812 1.218.27 1.894.473 1.894.473z" fill="#CBF7E3"/><path d="M60.657 278.709L8.115 374.391l290.777.135-23.533-94.599-214.702-1.218z" fill="#CBF7E3"/><path d="M16.635 358.963h278.402l-3.99-15.97-267.38 3.181-7.032 12.789zM32.73 329.595h255.004l-3.99-15.834-243.982 2.977-7.033 12.857zM48.891 300.227h231.54l-3.99-16.037-220.517 3.181-7.033 12.856z" fill="#E9FAF7"/><path d="M46.727 193.719a6.997 6.997 0 01-3.516-3.451c-.27-.609-.27-1.624.406-1.76.405-.067.81.271 1.081.542l3.043 3.045c-.608-1.557-.54-3.451.203-4.94.27-.541.812-1.15 1.353-.947.473.135.608.744.676 1.218.27 1.488.473 2.909.744 4.398.406-1.692 1.217-3.316 2.367-4.601.405-.474 1.082-.948 1.623-.609.473.27.473 1.015.338 1.556-.27 1.353-.609 2.707-1.15 3.992a7.556 7.556 0 014.734-1.894c.54 0 1.082.067 1.42.473.473.609.067 1.489-.474 2.03-1.487 1.692-5.004 2.098-7.235 1.963" fill="#E8505B"/><path d="M60.184 197.373c-5.477-4.331-15.012-4.872-21.369-2.03-7.1 3.248-11.766 10.827-12.51 18.135-.676 6.902 2.637 13.939 5.478 20.3l27.522.135c3.313-5.481 6.762-11.571 6.965-17.932.27-6.428-1.082-14.683-6.086-18.608z" fill="#4F4F4F"/><path d="M47.81 193.583s-.069.001-.136.068c-.068 0-.203.068-.338.068-.136.067-.338.068-.609.135a7.01 7.01 0 01-.811.203c-1.217.339-2.84 1.015-4.666 2.233-1.826 1.218-3.652 3.113-5.342 5.549-.812 1.218-1.556 2.571-2.232 3.992-.676 1.421-1.217 2.978-1.69 4.602-.947 3.248-.947 6.496-.474 9.338.473 2.842 1.352 5.346 2.096 7.443.744 2.098 1.42 3.722 1.894 4.872.203.542.406 1.015.54 1.354.068.135.068.27.136.338 0 .068.068.135.068.135s0-.067-.068-.135-.068-.203-.135-.338c-.135-.339-.338-.745-.541-1.286-.474-1.15-1.217-2.774-1.961-4.872a39.512 39.512 0 01-2.164-7.444c-.473-2.909-.473-6.157.473-9.473a30.917 30.917 0 011.758-4.601c.677-1.421 1.42-2.775 2.232-3.993 1.69-2.436 3.584-4.33 5.41-5.548 1.825-1.218 3.516-1.895 4.733-2.166l.812-.203c.203-.067.405-.068.608-.135.136 0 .27-.068.339-.068 0-.067.067-.068.067-.068zM55.856 233.643s.068-.136.136-.406c.135-.271.27-.677.405-1.151.338-1.015.88-2.436 1.488-4.263a86.647 86.647 0 001.893-6.428c.609-2.436 1.082-5.211 1.218-8.12a28.307 28.307 0 00-.812-8.12c-.608-2.436-1.555-4.534-2.57-6.158-1.014-1.624-2.028-2.774-2.84-3.519-.338-.406-.676-.609-.879-.812-.203-.203-.338-.27-.338-.27s.135.067.338.27.541.406.947.812a16.99 16.99 0 012.908 3.519c1.082 1.624 2.028 3.722 2.637 6.158.676 2.436 1.014 5.278.88 8.187a38.417 38.417 0 01-1.286 8.188c-.608 2.436-1.352 4.669-1.96 6.429-.61 1.827-1.218 3.248-1.556 4.263-.203.473-.338.879-.474 1.15l-.135.271zM50.514 193.719s0 .135-.135.406c-.068.27-.203.676-.338 1.15-.136.474-.338 1.083-.541 1.827-.203.677-.474 1.489-.677 2.436-.54 1.76-1.081 3.925-1.623 6.293-.54 2.369-1.014 5.075-1.487 7.85-.406 2.774-.676 5.481-.88 7.917-.067 1.218-.134 2.368-.134 3.451 0 .541 0 1.082-.068 1.556v1.489c0 .947.068 1.759.068 2.504 0 .744.067 1.353.067 1.894 0 .474.068.88.068 1.218v.406s0-.135-.068-.406c0-.27-.067-.676-.135-1.218a14.604 14.604 0 01-.135-1.894c-.068-.745-.068-1.557-.068-2.504v-1.489-1.556c0-1.083.068-2.233.135-3.519.136-2.436.406-5.143.812-7.985.405-2.774.946-5.481 1.487-7.849a89.195 89.195 0 011.691-6.293c.27-.88.54-1.692.744-2.369.203-.676.406-1.285.608-1.827.203-.473.27-.879.406-1.15.135-.203.203-.338.203-.338zM27.184 215.643c0 .068-.811.541-1.893 1.015-1.082.474-1.961.812-1.961.744 0-.067.811-.541 1.893-1.015 1.082-.473 1.961-.812 1.961-.744zM28.064 207.726c-.068.068-.947-.406-2.097-1.015-1.082-.609-1.96-1.218-1.96-1.286.067-.067.946.406 2.095 1.015 1.15.677 2.03 1.218 1.962 1.286zM33.135 201.23c-.068 0-.473-.677-.88-1.624-.405-.948-.743-1.692-.675-1.76.067 0 .473.677.879 1.624.405.948.744 1.692.676 1.76zM40.033 195.005c-.068.067-.474-.474-1.015-1.151-.473-.677-.879-1.218-.811-1.286.068-.067.473.474 1.014 1.151.474.676.88 1.286.812 1.286zM30.363 225.319c.067.068-.812.609-1.962 1.218-1.081.609-2.028 1.015-2.028.948-.068-.068.811-.609 1.96-1.218 1.015-.542 1.962-1.015 2.03-.948z" fill="#333"/><path d="M38.545 220.515c-.068.068-.812-.338-1.758-.812-.947-.541-1.69-1.015-1.623-1.083.067-.067.811.339 1.758.812.947.542 1.69 1.015 1.623 1.083zM40.844 209.485c0 .068-.676.542-1.69.88-1.015.406-1.826.541-1.894.474 0-.068.812-.339 1.758-.745a15.894 15.894 0 001.826-.609zM43.481 201.23c-.067 0-.405-.541-.744-1.353-.27-.812-.338-1.489-.27-1.489s.27.609.541 1.421c.27.744.541 1.353.473 1.421zM37.598 231.342c-.067 0 .27-.88.744-1.827.473-1.015.88-1.759.947-1.759.067 0-.27.879-.744 1.827-.406 1.015-.88 1.759-.947 1.759zM51.528 228.365c-.067.067-.811-.542-1.623-1.421-.811-.88-1.217-1.76-1.15-1.827.068-.068.61.744 1.353 1.624.744.947 1.42 1.556 1.42 1.624zM56.33 216.252c.067.068-.812.609-1.894 1.218-1.082.609-2.029 1.083-2.029 1.015-.067-.068.812-.609 1.894-1.218 1.082-.609 1.961-1.083 2.029-1.015zM53.084 208.809c-.068-.068.608-.745 1.487-1.557.88-.812 1.623-1.421 1.691-1.421.068.068-.609.745-1.488 1.557-.879.812-1.623 1.488-1.69 1.421zM53.219 200.892c-.068.067-.744-.406-1.488-1.083-.811-.677-1.42-1.218-1.352-1.286.068-.067.744.406 1.488 1.083.811.677 1.42 1.218 1.352 1.286zM62.416 195.681c.067.068-.609.542-1.488 1.151-.88.541-1.623.947-1.623.947-.068-.068.609-.541 1.488-1.15.811-.609 1.555-1.015 1.623-.948zM65.932 202.922c0 .067-.676.203-1.555.27-.88.068-1.556.068-1.623 0 0-.067.676-.203 1.555-.27.947-.068 1.623-.068 1.623 0zM68.231 211.448c0 .067-.879.067-2.028-.068-1.082-.135-1.962-.271-1.962-.338 0-.068.88-.068 2.03.067 1.081.136 1.96.271 1.96.339zM67.082 222.545c-.068.068-.88-.676-1.826-1.691-.947-.948-1.69-1.827-1.69-1.895.067-.068.878.677 1.825 1.692 1.014 1.015 1.758 1.827 1.69 1.894zM64.106 231.071c-.067.068-.946-.676-1.893-1.827-.947-1.082-1.488-2.097-1.42-2.165.067-.068.744.88 1.623 1.962.946 1.151 1.758 1.963 1.69 2.03z" fill="#333"/><path opacity=".3" d="M53.557 194.328c.068-.068.609.203 1.488.812s2.096 1.691 3.313 3.248c1.218 1.556 2.367 3.722 3.043 6.225.744 2.504 1.082 5.414 1.015 8.391-.068 2.977-.474 5.819-1.15 8.323a38.112 38.112 0 01-2.231 6.496c-1.556 3.587-2.84 5.617-2.976 5.549-.203-.068.812-2.233 2.097-5.887 1.284-3.587 2.84-8.729 2.907-14.549 0-2.909-.27-5.684-.879-8.052-.608-2.436-1.555-4.466-2.637-6.023-1.014-1.556-2.096-2.639-2.908-3.383-.676-.677-1.15-1.083-1.082-1.15zM50.311 193.313c.203.067-.203 2.3-.879 5.955-.676 3.654-1.69 8.661-2.502 14.21a254.068 254.068 0 00-1.014 7.849c-.136 1.218-.203 2.368-.27 3.451a342.945 342.945 0 01-.204 3.045c-.135 3.654-.135 5.955-.338 6.023-.135 0-.54-2.301-.608-6.023v-3.045c0-1.083.067-2.301.203-3.519.202-2.436.473-5.142.879-7.984.879-5.617 2.028-10.624 2.907-14.21 1.015-3.587 1.69-5.82 1.826-5.752zM47.065 193.042c0 .068-.608.338-1.69.812a23.743 23.743 0 00-4.463 2.572c-1.758 1.218-3.652 2.977-5.275 5.278a24.025 24.025 0 00-3.72 8.323c-.337 1.556-.473 3.18-.54 4.736 0 1.557.135 3.045.338 4.466.406 2.843 1.15 5.346 1.826 7.376.676 2.098 1.285 3.722 1.69 4.872.406 1.151.609 1.827.541 1.827-.067.068-.405-.541-1.014-1.624a56.558 56.558 0 01-2.096-4.804c-.812-2.098-1.623-4.601-2.097-7.511a25.88 25.88 0 01-.405-4.602c0-1.624.135-3.315.54-5.007.745-3.383 2.232-6.361 3.99-8.797 1.759-2.368 3.855-4.127 5.748-5.345 1.894-1.219 3.584-1.895 4.734-2.234 1.217-.338 1.893-.406 1.893-.338z" fill="#333"/><path d="M28.334 238.921l4.395 28.623h25.223l5.884-28.217-35.502-.406z" fill="#E8505B"/><path d="M60.32 257.258c0 .067-6.493.135-14.472.135-7.98 0-14.471-.068-14.471-.135 0-.068 6.491-.135 14.47-.135 7.98 0 14.472.067 14.472.135zM60.387 255.837c0 .067-6.492.135-14.54.135-8.046 0-14.538-.068-14.538-.135s6.492-.135 14.539-.135 14.539.068 14.539.135zM60.32 254.28c0 .068-6.493.135-14.54.135-8.047 0-14.539-.067-14.539-.135 0-.067 6.492-.134 14.54-.134 8.046-.068 14.538 0 14.538.134zM35.637 265.852c-.068 0-.406-1.624-.744-3.586-.338-2.03-.54-3.654-.473-3.654.067 0 .405 1.624.743 3.586.339 2.03.542 3.654.474 3.654zM37.328 265.582c-.068 0-.203-1.557-.339-3.519-.135-1.962-.27-3.519-.135-3.519.068 0 .338 1.557.474 3.519.135 1.962.067 3.519 0 3.519zM40.438 265.582c-.068 0-.406-1.625-.676-3.587-.27-2.03-.27-3.654-.203-3.654.068 0 .27 1.624.473 3.654.27 1.962.541 3.587.406 3.587zM42.67 265.717c-.068 0-.27-1.624-.339-3.654-.067-2.03 0-3.654.136-3.654.067 0 .135 1.624.203 3.654 0 2.03.067 3.654 0 3.654zM46.524 265.582c-.068 0-.203-1.557-.27-3.452-.068-1.894-.068-3.451 0-3.451.067 0 .203 1.557.27 3.451.135 1.895.135 3.452 0 3.452zM49.364 265.717c-.067 0-.135-1.624-.135-3.586 0-1.963.068-3.587.203-3.587.067 0 .135 1.624.135 3.587 0 1.962-.068 3.586-.203 3.586zM52.07 265.378c-.068 0 0-1.691.202-3.721.203-2.098.406-3.722.541-3.722.068 0 0 1.692-.203 3.789-.27 1.963-.473 3.654-.54 3.654zM55.518 264.973c-.068 0 .068-1.422.406-3.181.405-1.759.879-3.113.946-3.113.068 0-.27 1.421-.676 3.113-.338 1.759-.608 3.181-.676 3.181z" fill="#E9FAF7"/><path d="M25.426 233.237v5.345c0 1.151.947 2.098 2.096 2.098h36.584c1.15 0 2.096-.947 2.096-2.098v-5.345H25.426z" fill="#E8505B"/><path opacity=".4" d="M28.604 240.748l.338 1.691 33.744 2.369.88-4.06H28.603z" fill="#333"/><path d="M297.8 107.5h146.9v7.6H297.8v-7.6z" fill="#4F4F4F"/><path d="M317.6 38.8s0-.1.1-.2l.3-.6c.3-.5.7-1.3 1.4-2.2 1.3-1.8 3.4-4.4 6.9-6.5 1.7-1 3.8-1.9 6.2-2.3 2.4-.3 5-.2 7.5.8 2.5.9 4.9 2.7 6.4 5.2 1.5 2.6 1.9 5.6 2.8 8.5.4 1.4 1 2.8 1.8 4 .8 1.2 1.9 2.2 3 3 1.1.8 2.3 1.6 3.4 2.5 1.1.9 2 1.9 2.8 3 1.5 2.2 2.4 4.7 2.9 7s.5 4.6.4 6.6c-.3 4-1.1 7.2-1.7 9.3-.3 1.1-.5 1.9-.7 2.5l-.3.9s0-.3.2-.9c.1-.6.3-1.5.6-2.5.5-2.2 1.3-5.3 1.5-9.3.1-2 0-4.2-.4-6.4-.5-2.3-1.3-4.7-2.8-6.8-.7-1.1-1.7-2.1-2.7-2.9-1.1-.9-2.3-1.6-3.4-2.5-1.2-.9-2.3-1.8-3.2-3.1-.8-1.3-1.4-2.7-1.9-4.2-.9-2.9-1.3-5.9-2.8-8.4-1.4-2.5-3.7-4.1-6.1-5.1-2.4-.9-5-1.1-7.3-.8-2.3.3-4.3 1.2-6 2.2-3.4 2-5.6 4.5-6.9 6.3-.7.9-1.1 1.6-1.5 2.1-.3.6-.4.8-.5.8z" fill="#CBF7E3"/><path d="M355.4 49.4c-.8-.7-1.2-.2-2.2 0-1.1.2-2 .8-2.9 1.4-3.7 2.9-5.3 8.2-3.9 12.7 3.4.2 6.8-1.6 8.6-4.5 1.8-2.9 1.8-6.8.1-9.7M322.7 34.5c-.4-1-1-.7-2-1-1-.3-2.2-.2-3.2.1-4.6 1.1-8.4 5.1-9 9.8 3 1.6 6.9 1.5 9.7-.4 2.9-1.9 4.6-5.3 4.3-8.7M362.6 69.5c-2.2-2.5-5.5-3.9-8.8-3.8-3.3.2-6.5 1.9-8.4 4.6 2.4 2.2 5.7 3.5 8.9 3.5 3.3 0 6.5-1.5 9-3.6M359.9 54.5c3.3.1 6.6-1.4 8.8-3.9 2.1-2.5 3.1-6.1 2.4-9.3-3.5-.8-7.3.4-9.7 3.1-2.4 2.7-3.1 6.7-1.9 10M348.4 36.8c3.1 1.2 6.7.9 9.6-.8 2.9-1.7 4.9-4.7 5.4-8-3-1.9-7.1-2-10.2-.3-3.1 1.7-5.1 5.2-5.1 8.8M344.5 31.1c-3.1-1.2-6.7-.9-9.6.8-2.9 1.7-4.9 4.7-5.4 8 3 1.9 7.1 2 10.2.3 3.1-1.7 5.1-5.2 5.1-8.8M339.9 28c3.1-1.1 5.7-3.6 6.9-6.7 1.1-3.1.8-6.7-1-9.6-3.5.5-6.7 3-8 6.3-1.3 3.3-.6 7.3 1.7 10M328.2 28.5c1.1-3.1.8-6.7-1-9.6-1.7-2.8-4.8-4.8-8.1-5.2-1.8 3-1.9 7.1-.1 10.2 1.8 3.1 5.4 5 8.9 4.9" fill="#CBF7E3"/><path d="M375.6 108l6.3-39.3-48.1.6 4.8 38.2" fill="#333"/><path d="M354.9 61.5c-2.6 1.6-5.6 1.9-8 .7-2.4-1.2-4-3.8-4.4-6.9 2.6-1.3 5.5-1.4 8-.4 2.4 1 4.3 3.2 5.3 5.9M332.9 70c-2.6 1.6-5.6 1.9-8 .7-2.4-1.2-4-3.8-4.4-6.9 2.6-1.3 5.5-1.4 8-.4 2.4 1 4.3 3.2 5.3 5.9M345.2 51.1c-1.3 2.8-3.7 4.6-6.3 4.9-2.6.3-5.5-1-7.4-3.4 1.5-2.5 3.8-4.2 6.4-4.7 2.6-.5 5.4.3 7.7 2M337.2 60.9c3 0 5.8 1.3 7.2 3.5 1.4 2.2 1.5 5.3.2 8.2-2.9-.3-5.5-1.7-7-3.8-1.5-2.1-2.1-4.9-1.5-7.8M329.5 76.4c1.3 2.7 1.3 5.8-.2 8-1.4 2.2-4.2 3.6-7.3 3.6-1-2.8-.8-5.7.5-8s3.5-3.4 6.4-4.1" fill="#E8505B"/><path d="M316.7 78.2c0 .1.5-.7 1.9-1.2.7-.3 1.6-.4 2.6-.5 1 0 2.2.1 3.5.2 1.3.1 2.8.2 4.4-.4 1.5-.5 2.8-1.9 3.6-3.5.8-1.6 1.2-3.5 1.6-5.3.4-1.9.8-3.8 1.9-5.5 1.1-1.7 2.6-2.9 4.1-4.1 1.5-1.2 2.9-2.4 3.9-3.9 2-3 2.3-6.4 1.9-9-.4-2.7-1.5-4.6-2.4-5.8-.5-.6-.8-1-1.2-1.3-.3-.3-.4-.4-.5-.4 0 0 .1.2.4.5.3.3.6.7 1.1 1.3.8 1.2 1.8 3.1 2.2 5.7.3 2.6 0 5.9-2 8.7-1 1.4-2.4 2.6-3.8 3.8-1.4 1.2-3 2.5-4.2 4.2-1.1 1.8-1.5 3.8-1.9 5.6-.4 1.9-.7 3.7-1.5 5.2-.7 1.5-1.9 2.8-3.3 3.3s-2.9.5-4.2.4c-1.3-.1-2.5-.2-3.6-.1s-2 .3-2.7.6c-.7.3-1.2.7-1.4.9-.1.1-.2.3-.3.3 0 .2-.1.3-.1.3z" fill="#E8505B"/><path d="M316.7 78.2c0 .1.5-.7 1.9-1.2.7-.3 1.6-.4 2.6-.5 1 0 2.2.1 3.5.2 1.3.1 2.8.2 4.4-.4 1.5-.5 2.8-1.9 3.6-3.5.8-1.6 1.2-3.5 1.6-5.3.4-1.9.8-3.8 1.9-5.5 1.1-1.7 2.6-2.9 4.1-4.1 1.5-1.2 2.9-2.4 3.9-3.9 2-3 2.3-6.4 1.9-9-.4-2.7-1.5-4.6-2.4-5.8-.5-.6-.8-1-1.2-1.3-.3-.3-.4-.4-.5-.4 0 0 .1.2.4.5.3.3.6.7 1.1 1.3.8 1.2 1.8 3.1 2.2 5.7.3 2.6 0 5.9-2 8.7-1 1.4-2.4 2.6-3.8 3.8-1.4 1.2-3 2.5-4.2 4.2-1.1 1.8-1.5 3.8-1.9 5.6-.4 1.9-.7 3.7-1.5 5.2-.7 1.5-1.9 2.8-3.3 3.3s-2.9.5-4.2.4c-1.3-.1-2.5-.2-3.6-.1s-2 .3-2.7.6c-.7.3-1.2.7-1.4.9-.1.1-.2.3-.3.3 0 .2-.1.3-.1.3zM408.4 82.2c-.2-4 1.7-8.1 5-10.4 3.2-2.4 7.7-3 11.5-1.5-2.8 6.4-9.1 11-16 11.8M411.6 83.9c2.3 2.6 2.2 6.7.5 9.8-1.7 3.1-4.6 5.2-7.5 7.2-1-3.3-.8-6.9.4-10.1 1.2-3.2 3.5-6 6.4-7.8M400.2 71.8c-.4 3.8-2.3 7.3-5.3 9.6s-6.9 3.4-10.6 2.8c.9-3.8 2.4-7.6 5.3-10.1 2.9-2.6 7.5-3.5 10.7-1.4M400.3 67.9c.6-3.4 4-5.9 7.5-6.3 3.5-.3 6.9 1.2 9.7 3.3-2.1 2.4-5.1 3.9-8.2 4.2-3.2.3-6.4-.6-8.9-2.6M418.2 97.2c3.3 2.8 4.1 7.8 2.8 11.9-1.4 4.1-4.6 7.4-8.2 9.8-1.4-4.1-2.3-8.5-1.5-12.7.7-4.2 3.3-8.3 7.2-10.1M400.8 58.3c-1.7-2.6-4.7-4.2-7.8-4.4-3.1-.2-6.2 1.1-8.3 3.5 1.3 3 4.5 5.1 7.8 5.2 3.3.1 6.5-1.9 8-4.8M396.8 48.4c3.6 1.1 7.6.6 10.7-1.4 3.2-1.9 5.4-5.3 6.1-8.9-2.6-.2-5.3-.4-7.9.1-2.6.5-5.2 1.6-7 3.5-1.9 1.9-2.5 4.1-1.9 6.7zM389.2 45.8c2.4-2 3.9-5.1 4-8.3 0-3.2-1.5-6.3-3.9-8.3-2.4 2.9-4 6.4-4.7 10-.3 1.4-.4 2.8 0 4.2.4 1.3 1.5 2.5 2.9 2.7" fill="#E8505B"/><path opacity=".4" d="M408.4 82.2c-.2-4 1.7-8.1 5-10.4 3.2-2.4 7.7-3 11.5-1.5-2.8 6.4-9.1 11-16 11.8M411.6 83.9c2.3 2.6 2.2 6.7.5 9.8-1.7 3.1-4.6 5.2-7.5 7.2-1-3.3-.8-6.9.4-10.1 1.2-3.2 3.5-6 6.4-7.8M400.2 71.8c-.4 3.8-2.3 7.3-5.3 9.6s-6.9 3.4-10.6 2.8c.9-3.8 2.4-7.6 5.3-10.1 2.9-2.6 7.5-3.5 10.7-1.4M400.3 67.9c.6-3.4 4-5.9 7.5-6.3 3.5-.3 6.9 1.2 9.7 3.3-2.1 2.4-5.1 3.9-8.2 4.2-3.2.3-6.4-.6-8.9-2.6M418.2 97.2c3.3 2.8 4.1 7.8 2.8 11.9-1.4 4.1-4.6 7.4-8.2 9.8-1.4-4.1-2.3-8.5-1.5-12.7.7-4.2 3.3-8.3 7.2-10.1M400.8 58.3c-1.7-2.6-4.7-4.2-7.8-4.4-3.1-.2-6.2 1.1-8.3 3.5 1.3 3 4.5 5.1 7.8 5.2 3.3.1 6.5-1.9 8-4.8M396.8 48.4c3.6 1.1 7.6.6 10.7-1.4 3.2-1.9 5.4-5.3 6.1-8.9-2.6-.2-5.3-.4-7.9.1-2.6.5-5.2 1.6-7 3.5-1.9 1.9-2.5 4.1-1.9 6.7zM389.2 45.8c2.4-2 3.9-5.1 4-8.3 0-3.2-1.5-6.3-3.9-8.3-2.4 2.9-4 6.4-4.7 10-.3 1.4-.4 2.8 0 4.2.4 1.3 1.5 2.5 2.9 2.7" fill="#333"/><path d="M376 70v-.3-.8c0-.7-.1-1.7-.1-3 0-2.6 0-6.5 1.8-10.9.9-2.1 2.3-4.4 4.4-6.2 2-1.8 4.9-3 8-2.9 1.5 0 3.1.4 4.5 1.1 1.4.7 2.6 1.9 3.5 3.3 1.7 2.9 2.2 6.5 2 10-.1 3.6-.6 7.1-.2 10.6.2 1.7.6 3.4 1.3 4.9.7 1.5 1.7 2.9 3 3.9s2.7 1.6 4.1 2.1c1.4.5 2.7 1 3.9 1.8 2.3 1.4 4 3.5 5.1 5.5 1.1 2.1 1.5 4.2 1.5 6.1 0 1.9-.3 3.5-.8 4.7-.9 2.5-1.9 3.6-1.8 3.7l.2-.2c.1-.1.3-.3.5-.6.4-.6.9-1.5 1.4-2.7.5-1.2.9-2.9.9-4.8s-.4-4.1-1.4-6.2c-1.1-2.1-2.8-4.2-5.2-5.8-2.4-1.6-5.5-2-7.9-3.9-2.4-1.9-3.7-5.1-4.1-8.4-.4-3.4.1-6.9.3-10.5.2-3.6-.3-7.3-2.1-10.3-.9-1.5-2.2-2.7-3.7-3.5-1.5-.8-3.1-1.1-4.7-1.2-3.2-.1-6.2 1.2-8.3 3.1-2.1 1.9-3.5 4.2-4.4 6.4-.9 2.2-1.3 4.4-1.5 6.2-.2 1.9-.2 3.5-.1 4.8.1 1.3.2 2.3.2 3 0 .3.1.6.1.8-.4.1-.4.2-.4.2z" fill="#E8505B"/><path opacity=".4" d="M376 70v-.3-.8c0-.7-.1-1.7-.1-3 0-2.6 0-6.5 1.8-10.9.9-2.1 2.3-4.4 4.4-6.2 2-1.8 4.9-3 8-2.9 1.5 0 3.1.4 4.5 1.1 1.4.7 2.6 1.9 3.5 3.3 1.7 2.9 2.2 6.5 2 10-.1 3.6-.6 7.1-.2 10.6.2 1.7.6 3.4 1.3 4.9.7 1.5 1.7 2.9 3 3.9s2.7 1.6 4.1 2.1c1.4.5 2.7 1 3.9 1.8 2.3 1.4 4 3.5 5.1 5.5 1.1 2.1 1.5 4.2 1.5 6.1 0 1.9-.3 3.5-.8 4.7-.9 2.5-1.9 3.6-1.8 3.7l.2-.2c.1-.1.3-.3.5-.6.4-.6.9-1.5 1.4-2.7.5-1.2.9-2.9.9-4.8s-.4-4.1-1.4-6.2c-1.1-2.1-2.8-4.2-5.2-5.8-2.4-1.6-5.5-2-7.9-3.9-2.4-1.9-3.7-5.1-4.1-8.4-.4-3.4.1-6.9.3-10.5.2-3.6-.3-7.3-2.1-10.3-.9-1.5-2.2-2.7-3.7-3.5-1.5-.8-3.1-1.1-4.7-1.2-3.2-.1-6.2 1.2-8.3 3.1-2.1 1.9-3.5 4.2-4.4 6.4-.9 2.2-1.3 4.4-1.5 6.2-.2 1.9-.2 3.5-.1 4.8.1 1.3.2 2.3.2 3 0 .3.1.6.1.8-.4.1-.4.2-.4.2z" fill="#333"/><path d="M306.1 61.4c.1 0-.7-1.2-.7-3.5 0-1.2.2-2.6.9-4.1.7-1.5 2.1-2.9 3.9-3.8.9-.4 2-.8 3.1-.8 1.1-.1 2.3.1 3.5.4 2.4.6 4.7 2 7.5 2.5 1.4.3 2.9.3 4.3-.1 1.5-.4 2.7-1.5 3.5-2.8 1.7-2.6 2.1-5.9 4.2-8.3 1-1.2 2.4-2 3.8-2.5s3-.6 4.4-.4c3 .2 5.6 1.8 7.4 3.8 1.8 2 3 4.4 3.7 6.8.7 2.3.9 4.6.8 6.7-.2 4.2-.9 7.5-1.2 9.8-.2 1.1-.3 2-.5 2.7 0 .3-.1.5-.1.7v.2s0-.1.1-.2c0-.2.1-.4.2-.7.1-.6.3-1.5.6-2.6.4-2.3 1.2-5.6 1.4-9.8.1-2.1-.1-4.4-.8-6.8-.7-2.4-1.8-4.9-3.7-7-.9-1-2.1-2-3.4-2.7-1.3-.7-2.8-1.2-4.3-1.3-1.5-.2-3.1 0-4.6.5-1.5.5-3 1.4-4 2.6-2.1 2.6-2.6 5.9-4.2 8.3-.8 1.2-1.9 2.2-3.2 2.6-1.3.4-2.8.4-4.1.1-2.7-.5-5-1.8-7.4-2.5-1.2-.3-2.4-.5-3.6-.4-1.2.1-2.3.4-3.2.9-1.9.9-3.3 2.5-4 4-.7 1.5-.9 3-.9 4.2 0 1.2.3 2.1.5 2.7-.1.5.1.8.1.8z" fill="#E8505B"/><path d="M334.1 44c-2.6 1.6-6.2 1.8-8.6.6-2.4-1.2-4-3.8-4.4-6.9 2.6-1.3 5.5-1.4 8-.4 2.4 1 4.3 3.2 5.3 5.9M325 52.2c0 3-1.7 6.2-4 7.6-2.2 1.4-5.3 1.5-8.2.1.3-2.9 1.7-5.5 3.8-7 2.1-1.5 5-2.1 7.8-1.4M309.2 50.4c-2.7 1.3-6.4 1.1-8.6-.4-2.2-1.4-3.6-4.2-3.6-7.3 2.8-1 5.7-.8 8 .4 2.3 1.3 4 3.6 4.6 6.5M347.4 38.5c2.3-2 3.8-5.5 3.4-8.1-.4-2.6-2.4-5-5.3-6.2-2 2.2-3 4.9-2.7 7.5.2 2.6 1.7 5.1 4.1 6.8M409.1 27.2s0-.1-.1-.2l-.3-.6c-.3-.5-.7-1.3-1.4-2.2-1.3-1.8-3.4-4.4-6.9-6.5-1.7-1-3.8-1.9-6.2-2.3-2.4-.3-5-.2-7.5.8-2.5.9-4.9 2.7-6.4 5.2-1.5 2.6-1.9 5.6-2.8 8.5-.4 1.4-1 2.8-1.8 4-.8 1.2-1.9 2.2-3 3-1.1.8-2.3 1.6-3.4 2.5-1.1.9-2 1.9-2.8 3-1.5 2.2-2.4 4.7-2.9 7s-.5 4.6-.4 6.6c.3 4 1.1 7.2 1.7 9.3.3 1.1.5 1.9.7 2.5l.3.9s0-.3-.2-.9c-.1-.6-.3-1.5-.6-2.5-.5-2.2-1.3-5.3-1.5-9.3-.1-2 0-4.2.4-6.4.5-2.3 1.3-4.7 2.8-6.8.7-1.1 1.7-2.1 2.7-2.9 1.1-.9 2.3-1.6 3.4-2.5 1.2-.9 2.3-1.8 3.2-3.1.8-1.3 1.4-2.7 1.9-4.2.9-2.9 1.3-5.9 2.8-8.4 1.4-2.5 3.7-4.1 6.1-5.1 2.4-.9 5-1.1 7.3-.8 2.3.3 4.3 1.2 6 2.2 3.4 2 5.6 4.5 6.9 6.3.7.9 1.1 1.6 1.5 2.1.3.5.5.8.5.8z" fill="#E8505B"/><path d="M371.3 37.8c.8-.7 1.2-.2 2.2 0 1.1.2 2 .8 2.9 1.4 3.7 2.9 5.3 8.2 3.9 12.7-3.4.2-6.8-1.6-8.6-4.5-1.8-2.9-1.8-6.8-.1-9.7M404 22.9c.4-1 1-.7 2-1 1-.3 2.2-.2 3.2.1 4.6 1.1 8.4 5.1 9 9.8-3 1.6-6.9 1.5-9.7-.4-2.9-1.9-4.6-5.3-4.3-8.7M364.2 57.9c2.2-2.5 5.5-3.9 8.8-3.8 3.3.2 6.5 1.9 8.4 4.6-2.4 2.2-5.7 3.5-8.9 3.5-3.3 0-6.5-1.5-9-3.6M366.8 42.9c-3.3.1-6.6-1.4-8.8-3.9-2.1-2.5-3.1-6.1-2.4-9.3 3.5-.8 7.3.4 9.7 3.1 2.4 2.7 3.1 6.7 1.9 10M378.3 25.2c-3.1 1.2-6.7.9-9.6-.8-2.9-1.7-4.9-4.7-5.4-8 3-1.9 7.1-2 10.2-.3 3.1 1.7 5.1 5.2 5.1 8.8M382.2 19.4c3.1-1.2 6.7-.9 9.6.8 2.9 1.7 4.9 4.7 5.4 8-3 1.9-7.1 2-10.2.3-3.1-1.7-5.1-5.2-5.1-8.8M386.8 16.3c-3.1-1.1-5.7-3.6-6.9-6.7-1.1-3.1-.8-6.7 1-9.6 3.5.5 6.7 3 8 6.3 1.3 3.3.6 7.3-1.7 10M398.5 16.9c-1.1-3.1-.8-6.7 1-9.6 1.8-2.9 4.8-4.8 8.1-5.2 1.8 3 1.9 7.1.1 10.2-1.8 3.1-5.4 5-8.9 4.9" fill="#E8505B"/><path d="M382.5 103.5l-3.7 4.5h-45.2l-3.1-4.5h52z" fill="#333"/><path d="M331.5 103.4c0 .1 11.1.3 24.8.3 13.7 0 24.8-.1 24.8-.3 0-.1-11.1-.3-24.8-.3-13.7.1-24.8.2-24.8.3zM336.6 86.3s.1.1.3.4c.2.2.5.6.9 1 .8.8 2.2 1.9 4 2.8 1.9.9 4.3 1.7 7.1 1.8 1.4.1 2.8 0 4.3-.4 1.5-.3 2.9-.8 4.4-1.5 2.9-1.2 5.6-2.7 8.1-3.5 2.6-.8 5-1.1 7-.7 2 .4 3.5 1.3 4.3 2 .9.8 1.2 1.3 1.2 1.3s-.1-.1-.2-.4c-.2-.3-.4-.6-.9-1-.8-.8-2.3-1.8-4.4-2.2-2.1-.5-4.6-.3-7.3.6-2.6.8-5.3 2.2-8.2 3.5-1.4.6-2.9 1.1-4.3 1.4-1.4.3-2.8.4-4.2.4-2.7-.1-5.1-.8-6.9-1.7-3.5-1.8-5.1-3.9-5.2-3.8z" fill="#4F4F4F"/><path d="M336.2 82.8l.3.3c.2.2.5.5 1 .9.9.7 2.3 1.7 4.2 2.6 1.9.8 4.3 1.6 7.1 1.7 1.4.1 2.8 0 4.3-.3s3-.7 4.5-1.3c3-1.1 5.7-2.3 8.3-3.1 2.6-.8 5.1-1 7.1-.6 2 .3 3.5 1.1 4.5 1.7.9.7 1.3 1.2 1.4 1.1 0 0-.1-.1-.3-.4-.2-.2-.5-.6-1-.9-.9-.7-2.5-1.6-4.5-1.9-2.1-.4-4.6-.2-7.3.5s-5.4 2-8.4 3c-1.5.5-2.9 1-4.4 1.3-1.4.3-2.9.4-4.2.3-2.7-.1-5.1-.8-7-1.6-3.8-1.5-5.6-3.5-5.6-3.3zM400.5 113.1h4.4v12.3h-4.4v-12.3zM337.6 113.1h4.4v12.3h-4.4v-12.3z" fill="#4F4F4F"/><path d="M316 267.679c0 .068-70.733.203-158.034.203C70.733 267.815 0 267.747 0 267.679c0-.067 70.733-.203 158.034-.203 87.233 0 157.966.068 157.966.203z" fill="#333"/><path d="M251.229 88.054c-13.7 0-24.791 11.153-24.791 24.971 0 5.657 1.849 10.825 5.002 15.014l-2.882 9.357 9.08-3.536a24.46 24.46 0 0013.645 4.135c13.7 0 24.791-11.153 24.791-24.97 0-13.819-11.145-24.97-24.845-24.97z" fill="#E9FAF7"/><path d="M251.283 88.054h.435c.326 0 .761 0 1.251.055.271 0 .598 0 .924.054.326.055.707.109 1.141.163.381.055.87.11 1.305.164.435.108.924.217 1.468.38 2.066.544 4.567 1.415 7.068 3.101 2.555 1.632 5.164 3.972 7.339 7.127a25.496 25.496 0 014.186 11.696c.054 1.143.163 2.285.054 3.428-.054.598-.054 1.196-.108 1.74-.109.599-.163 1.197-.272 1.741-.489 2.34-1.196 4.733-2.392 6.964a27.952 27.952 0 01-4.567 6.256c-1.903 1.849-4.077 3.482-6.578 4.733-2.447 1.251-5.165 2.121-7.992 2.448-.707.163-1.413.163-2.12.163-.707.054-1.414.054-2.175.054-1.468-.054-2.881-.217-4.295-.544a24.135 24.135 0 01-8.589-3.644h.272c-2.991 1.196-5.926 2.393-8.753 3.536l-.544.217.163-.544c.87-3.209 1.74-6.365 2.555-9.357l.055.218c-2.447-3.264-4.023-7.018-4.676-10.717-.326-1.85-.489-3.7-.326-5.495.054-.87.054-1.795.272-2.611.054-.435.109-.871.217-1.306.055-.435.218-.816.327-1.251 1.685-6.583 5.762-11.479 9.785-14.253 2.012-1.415 4.023-2.448 5.817-3.047l1.305-.49c.435-.108.87-.217 1.251-.326.38-.109.761-.217 1.141-.272.381-.054.707-.109 1.033-.163.653-.109 1.251-.218 1.74-.218.489 0 .924-.054 1.305-.054h.761c.163.054.217.054.217.054s-.108 0-.272.055c-.217 0-.435.054-.761.054-.38 0-.761.055-1.304.109-.49.054-1.088.163-1.74.272-2.555.49-6.47 1.523-10.384 4.407-3.969 2.774-7.883 7.616-9.514 14.09-.109.38-.217.816-.272 1.196-.054.436-.108.816-.163 1.252-.163.816-.217 1.686-.217 2.611-.109 1.741.054 3.59.38 5.386a24.478 24.478 0 004.621 10.499l.055.109-.055.109c-.815 3.046-1.685 6.147-2.555 9.357l-.38-.327c2.881-1.142 5.762-2.339 8.752-3.536l.164-.054.108.109c2.501 1.632 5.382 2.883 8.427 3.536a22.71 22.71 0 004.24.544c.707.054 1.414 0 2.121-.055.706-.054 1.413-.054 2.066-.163 2.772-.326 5.436-1.197 7.828-2.393a24.748 24.748 0 006.415-4.625c1.794-1.849 3.317-3.917 4.458-6.147 1.196-2.176 1.903-4.515 2.338-6.855.109-.598.163-1.142.272-1.74.108-.599.054-1.143.108-1.741.109-1.143 0-2.285-.054-3.373-.38-4.407-1.957-8.324-4.023-11.479-2.066-3.155-4.675-5.44-7.176-7.126a23.18 23.18 0 00-6.959-3.156c-.489-.109-.978-.272-1.468-.38-.435-.055-.87-.164-1.305-.218-.38-.055-.761-.109-1.087-.163-.326-.055-.652-.055-.924-.055-.544-.054-.979-.054-1.25-.109h-.49z" fill="#333"/><path d="M241.878 109.706c.544-2.339 2.718-4.298 5.11-4.08 1.414.163 2.664.979 3.534 2.122.381.489.653.816.816 1.196.217-.38.435-.707.815-1.196.87-1.143 2.12-1.959 3.534-2.122 2.392-.218 4.567 1.741 5.11 4.08.544 2.339-.326 4.787-1.794 6.691-1.413 1.904-3.805 4.353-7.828 5.277-2.664-.598-6.035-3.373-7.449-5.277-1.522-1.904-2.392-4.352-1.848-6.691z" fill="#E8505B"/><path d="M242.313 114.004H246.716l-.054-.054c.272 1.033.652 2.284.979 3.644l.054.218.054-.218a202.054 202.054 0 001.903-5.494c.218-.599.435-1.197.598-1.795h-.163c.761 1.305 1.468 2.502 2.12 3.645v.054h.055c2.337 0 4.295 0 5.708-.054h2.066-7.774l.054.054c-.652-1.143-1.359-2.339-2.12-3.645l-.109-.163-.054.163a22.876 22.876 0 00-.598 1.795 303.953 303.953 0 01-1.903 5.495h.109c-.381-1.36-.707-2.557-1.033-3.645v-.054h-4.404l.109.054z" fill="#E9FAF7"/><path d="M256.222 293.325c.338-1.962-.203-4.06-1.42-5.684a7.985 7.985 0 00-5.004-3.045c-.203 0-.406-.067-.541.068-.203.135-.203.474-.203.744.203 1.895 1.014 3.79 2.231 5.211 1.217 1.421 3.043 2.503 4.869 2.909" fill="#4F4F4F"/><path d="M245.537 307.4c1.894 3.993 4.666 6.632 8.115 6.767.676 0 1.217-.406 1.826-.474.338 0 .744.271 1.082.406.203.068.406.136.541.136 3.516-.203 6.559-2.707 8.588-6.835 2.84-5.819 1.961-12.045-1.961-14.007a7.887 7.887 0 00-1.623-.609c-.609-.135-1.285-.271-1.961-.203-1.217 0-2.57.338-4.396 1.015-.067 0-.135.068-.203.068-3.178-1.421-5.68-1.421-8.114-.203-3.855 1.827-4.734 8.12-1.894 13.939z" fill="#E8505B"/><path d="M245.605 301.513s-.203-.406-.338-1.15c-.135-.745-.068-1.827.338-2.91.406-1.083 1.082-1.962 1.623-2.436.541-.474 1.014-.677 1.014-.677 0 .068-.338.271-.879.812-.541.542-1.149 1.354-1.487 2.369-.406 1.015-.474 2.097-.406 2.774.067.744.203 1.15.135 1.218zM246.281 304.287c-.067 0-.203-.27-.27-.609-.068-.338-.068-.676 0-.676.067 0 .203.27.27.609.068.338.135.609 0 .676z" fill="#E9FAF7"/><path d="M264.269 283.784c0 .068-.744.339-1.826 1.015-.541.339-1.15.745-1.826 1.286a26.633 26.633 0 00-1.961 1.962 15.278 15.278 0 00-1.555 2.301c-.406.744-.677 1.421-.947 2.03-.406 1.218-.541 2.03-.609 1.962 0 0 0-.203.068-.541 0-.203.068-.406.135-.677l.203-.812c.203-.609.473-1.353.879-2.097.406-.745.947-1.557 1.556-2.301a13.365 13.365 0 013.854-3.248l.811-.406c.203-.135.406-.203.609-.271.406-.135.541-.203.609-.203z" fill="#333"/><path d="M152.962 332.437c5.072.406 10.414.135 14.404 1.692 2.028.812 3.651 1.624 4.328 4.33.608 2.369-1.285 6.226-2.976 7.985-5.072 5.008-7.033 7.308-8.453 12.857-1.42 5.549-3.381 11.504-8.52 14.549-1.15.676-2.435 1.218-3.855 1.15-1.42-.068-2.84-.88-3.313-2.098-.541-1.353.203-2.774.879-3.992 2.096-3.722 3.787-7.647 4.328-11.842.541-4.195 0-5.752-2.637-9.473-2.976-3.587-8.048-6.429-13.66-9.068l11.496-6.564 7.979.474z" fill="#FFBE9D"/><path d="M147.62 285.341s-5.68 1.082-7.98.541c-17.92-4.399-56.126-24.36-70.462-15.631-12.78 7.714-9.467 20.3-1.353 30.856 7.98 10.421 58.697 36.744 58.697 36.744l16.973-13.94-6.627-2.977 2.367-.339c4.395.609 8.858.474 13.186-.406l21.504-4.195v-22.33l-26.305-8.323z" fill="#333"/><path d="M218.826 292.04s7.98 8.458 9.332 23.48c.474 5.075-2.231 14.413-6.559 18.135-7.912 6.767-18.326 9.947-28.74 9.135l-47.944-2.368-1.353-18.067s19.543-7.308 25.021-8.324l5.477-.676v-19.624l23.939 1.286c7.506.406 20.827-2.977 20.827-2.977z" fill="#333"/><path d="M198.81 303.611s-.406.135-1.082.271c-.676.135-1.69.338-2.908.609-2.434.541-5.815 1.421-9.399 2.774-3.584 1.353-6.695 2.91-8.926 4.128-1.082.609-1.961 1.082-2.57 1.488-.609.339-.947.542-.947.542s.271-.271.879-.609c.609-.406 1.42-.948 2.57-1.557 2.164-1.285 5.275-2.842 8.926-4.195a60.553 60.553 0 019.467-2.707 23.66 23.66 0 012.976-.473c.608-.271 1.014-.339 1.014-.271zM220.179 332.572s.406-.203.947-.744a5.863 5.863 0 001.555-2.774c.406-1.354.338-2.978.27-4.805-.135-1.827-.27-3.857-.608-5.887a23.284 23.284 0 00-1.691-5.684c-.744-1.624-1.758-2.977-2.637-3.992-1.894-2.03-3.584-2.639-3.516-2.707 0 0 .135 0 .27.135.203.068.473.203.811.406a13.134 13.134 0 012.638 2.03 16.356 16.356 0 012.772 4.06c.812 1.692 1.353 3.654 1.758 5.752.339 2.098.474 4.128.609 5.955s.068 3.519-.338 4.872c-.406 1.353-1.15 2.301-1.758 2.774-.271.271-.541.406-.744.542-.203.067-.338.067-.338.067zM143.292 322.558s.135-.068.473-.203c.338-.136.879-.339 1.488-.609a475.158 475.158 0 005.41-2.03c2.299-.812 5.072-1.76 8.182-2.639 3.111-.948 6.56-1.895 10.211-2.707 7.303-1.624 14.066-2.301 19.002-2.233h1.758c.541 0 1.082.068 1.556.068.946.067 1.825.067 2.502.203a22.44 22.44 0 011.555.203c.338.067.541.067.541.067h-.541c-.406 0-.947-.067-1.555-.135a24.093 24.093 0 00-2.502-.135c-.474 0-1.015-.068-1.556-.068h-1.758c-4.869 0-11.631.677-18.867 2.301-3.651.812-7.1 1.691-10.143 2.639-3.111.879-5.883 1.827-8.182 2.571-2.299.812-4.125 1.421-5.478 1.895-.608.203-1.149.406-1.487.541-.406.203-.541.271-.609.271zM136.259 323.437l-.135-.135c-.068-.135-.203-.271-.271-.474-.27-.406-.676-1.015-1.149-1.759a21.228 21.228 0 01-.812-1.286c-.27-.473-.676-.947-1.014-1.489-.744-1.082-1.555-2.3-2.502-3.586-.473-.677-1.014-1.353-1.555-2.03-.541-.677-1.15-1.421-1.759-2.165-1.149-1.489-2.569-3.045-3.989-4.602a116.448 116.448 0 00-10.076-9.744c-3.787-3.18-7.641-5.955-11.225-8.323-1.826-1.15-3.517-2.233-5.207-3.18-.812-.474-1.623-.948-2.435-1.354-.811-.406-1.555-.812-2.231-1.15-1.42-.744-2.773-1.353-3.922-1.895-.609-.27-1.15-.541-1.623-.744-.541-.203-.947-.406-1.42-.609-.812-.338-1.488-.609-1.894-.812a3.296 3.296 0 01-.473-.203l-.135-.068s.067 0 .203.068c.135.068.27.135.54.203.474.203 1.15.474 1.962.744.405.203.879.339 1.42.542.54.203 1.082.473 1.623.744 1.15.541 2.57 1.083 3.99 1.895.743.338 1.487.744 2.298 1.15.812.406 1.556.88 2.435 1.353 1.69.88 3.381 2.03 5.274 3.181a132.847 132.847 0 0111.293 8.323 116.448 116.448 0 0110.076 9.744c1.42 1.624 2.773 3.113 3.99 4.669.608.744 1.217 1.489 1.69 2.165.541.745 1.015 1.421 1.488 2.03 1.014 1.286 1.758 2.572 2.502 3.654.338.542.676 1.016 1.014 1.489.271.474.541.88.812 1.286.473.744.811 1.353 1.082 1.827.135.203.203.338.27.474-.135 0-.135.067-.135.067z" fill="#4F4F4F"/><path d="M111.78 295.626s-.203-.271-.541-.812-.812-1.353-1.42-2.301c-1.217-1.962-3.043-4.534-5.342-7.24-2.232-2.707-4.463-4.94-6.154-6.564-.811-.812-1.555-1.421-2.029-1.827-.473-.406-.743-.677-.743-.677l.811.609c.541.406 1.217 1.015 2.096 1.76 1.691 1.556 3.99 3.789 6.222 6.496 2.231 2.706 4.057 5.346 5.274 7.308.609 1.015 1.082 1.827 1.353 2.368.338.542.473.88.473.88z" fill="#4F4F4F"/><path d="M75.805 288.453c-.068.068-1.488-1.962-3.72-3.992-2.163-2.098-4.327-3.384-4.26-3.451 0-.068.609.27 1.42.812.812.541 1.961 1.353 3.043 2.436 1.082 1.015 2.029 2.098 2.638 2.91.608.744.946 1.285.879 1.285z" fill="#333"/><path d="M143.563 322.558l-28.875 3.248 1.623 14.819h33.27l-6.018-18.067z" fill="#FFBE9D"/><path d="M124.493 340.557c-4.395.136-12.916 3.993-15.959 6.902-2.975 2.91-5.071 6.564-6.762 10.353-.541 1.286-1.217 2.707-2.637 3.046-1.218.338-2.705-.339-3.584-1.421-.88-1.016-1.218-2.369-1.353-3.655-.608-5.819 2.908-10.826 6.424-15.225 3.517-4.33 4.463-6.225 5.41-13.127.338-2.369 2.299-6.09 4.463-7.038 2.502-1.082 4.125-.203 5.951.88l6.492 3.722" fill="#FFBE9D"/><path d="M149.581 340.625s-.27.068-.811.068h-2.232c-1.893 0-4.463.067-7.303.135s-5.478.068-7.303 0c-.947 0-1.691-.068-2.232-.068-.541-.067-.811-.067-.811-.067s.27-.068.811-.068h2.232c1.893 0 4.463-.068 7.303-.135 2.84-.068 5.477-.068 7.303 0 .947 0 1.691.067 2.232.067.541 0 .811.068.811.068z" fill="#EB996E"/><path d="M137.341 295.423s.203.271.541.812c.203.271.338.609.541 1.015.203.406.474.88.676 1.421.203.541.474 1.15.677 1.759.27.609.405 1.354.608 2.098.338 1.489.677 3.18.812 4.94.135 1.759 0 3.451-.135 5.007-.136.744-.203 1.489-.339 2.165-.135.677-.27 1.286-.473 1.827-.135.542-.338 1.083-.473 1.489-.136.406-.271.812-.406 1.083-.271.609-.406.947-.406.879 0 0 .068-.338.338-.947.136-.271.271-.677.338-1.083.136-.406.271-.947.406-1.488.135-.542.271-1.151.406-1.827.135-.677.203-1.354.338-2.098.135-1.489.203-3.18.135-4.94a33.402 33.402 0 00-.744-4.872c-.202-.744-.338-1.421-.608-2.097-.203-.677-.406-1.218-.609-1.76a14.95 14.95 0 00-.608-1.421c-.203-.406-.338-.744-.541-1.082-.338-.542-.474-.88-.474-.88zM150.528 307.535s-.068-.338-.136-.947c0-.338-.067-.677-.135-1.15-.067-.406-.135-.948-.203-1.489-.203-1.083-.473-2.368-.946-3.789a33.883 33.883 0 00-1.826-4.399c-.744-1.488-1.623-2.909-2.502-4.06a24.852 24.852 0 00-2.502-2.977c-.338-.406-.744-.744-1.082-1.083-.338-.338-.609-.541-.812-.744-.473-.406-.744-.677-.676-.677 0 0 .271.203.812.542.27.203.54.406.879.744.338.271.743.609 1.082 1.015.811.812 1.69 1.827 2.569 2.977a33.46 33.46 0 012.57 4.128 39.017 39.017 0 011.826 4.466c.405 1.421.744 2.774.879 3.857.067.541.135 1.083.203 1.489.067.473.067.812.067 1.15-.067.541-.067.947-.067.947z" fill="#4F4F4F"/><path d="M222.343 322.219s0 .068-.068.203c-.067.136-.135.339-.27.542-.203.473-.609 1.15-1.082 2.03a28.185 28.185 0 01-2.232 2.909c-.946 1.015-2.164 2.166-3.584 3.181-2.84 2.097-6.762 4.06-11.36 5.142-4.599 1.151-9.806 1.557-15.215 1.624-10.82.068-20.693-.067-27.793-.067-3.517 0-6.424-.068-8.385-.068-.947 0-1.759 0-2.3-.068H149.243 152.354c2.028 0 4.868 0 8.385-.067h27.793c5.409-.068 10.549-.406 15.147-1.557 4.531-1.082 8.385-2.977 11.293-5.007a24.2 24.2 0 003.584-3.113 22.321 22.321 0 002.232-2.842c.541-.812.946-1.488 1.149-1.962.135-.203.203-.406.271-.541.067-.271.135-.339.135-.339zM226.333 309.024c.067 0-.541 2.098-1.421 4.534-.879 2.504-1.69 4.466-1.758 4.466-.067 0 .541-2.098 1.42-4.534.879-2.503 1.691-4.466 1.759-4.466zM107.723 323.099s-.068 0-.136-.068c-.135-.067-.27-.135-.473-.203a17.28 17.28 0 00-1.758-.744c-1.556-.677-3.72-1.692-6.424-2.977a128.292 128.292 0 01-9.265-4.872c-3.38-1.963-7.032-4.399-10.549-7.308-7.033-5.888-11.834-12.79-14.606-18.068-1.42-2.639-2.367-4.872-2.908-6.428-.338-.744-.473-1.421-.676-1.827-.068-.203-.136-.338-.136-.474 0-.135-.067-.135-.067-.135s0 .068.067.135c.068.136.136.271.203.474.203.406.406 1.015.677 1.759.608 1.557 1.623 3.722 3.043 6.361 2.772 5.21 7.64 12.045 14.606 17.932a77.736 77.736 0 0010.481 7.308c3.382 2.03 6.56 3.586 9.197 4.94 2.705 1.285 4.869 2.368 6.357 3.045.744.338 1.285.609 1.758.812.203.067.338.135.473.203.068.135.136.135.136.135z" fill="#E8505B"/><path d="M156.884 125.239c-1.014-1.691-3.043-2.774-5.004-2.571-1.961.203-3.787 1.556-4.463 3.383-.27.812-.406 1.692-.947 2.369-1.352 1.827-4.733 1.285-5.815 3.315-1.15 2.166 1.487 4.669.879 7.038-.541 1.894-2.908 2.706-3.449 4.601-.744 2.504 2.232 4.94 1.555 7.376-.608 2.098-3.584 2.91-4.057 5.075-.541 2.368 2.435 4.331 2.367 6.767-.068 3.112-4.801 4.872-4.396 7.985.271 1.691 2.097 2.842 2.367 4.533.541 3.181-4.395 5.414-3.787 8.662.271 1.488 1.691 2.503 2.908 3.383 1.217.88 2.502 2.233 2.232 3.722-.271 1.556-2.029 2.436-2.976 3.721-1.487 1.963.879 7.106 3.111 8.121l9.332-6.97s-2.705-2.233-.609-4.263c2.097-2.03.744-2.978.676-4.534 0 0 2.097 1.759 1.353 3.586-1.014 2.436.473 4.399.473 4.399l14.269-6.429 1.555-13.533-7.574-49.736z" fill="#333"/><path d="M136.057 188.373s-.339.068-.88.068c-.608-.068-1.487-.203-2.502-.745-1.014-.541-2.096-1.624-2.569-3.18-.271-.744-.406-1.692-.271-2.571.136-.948.474-1.827.947-2.775.473-.879 1.014-1.827 1.488-2.774.405-1.015.744-2.098.541-3.248-.203-1.15-1.082-2.03-1.759-3.113-.338-.541-.676-1.15-.608-1.894 0-.677.473-1.354 1.082-1.76.541-.406 1.217-.677 1.826-1.015.608-.338 1.149-.677 1.487-1.286.338-.541.338-1.285.136-1.962-.203-.677-.541-1.286-.947-1.895-.406-.609-.879-1.15-1.285-1.759-.406-.609-.744-1.353-.811-2.165a3.25 3.25 0 01.676-2.233c.473-.609 1.149-1.083 1.758-1.557.609-.473 1.285-.879 1.758-1.421.474-.541.812-1.218.879-1.894 0-.677-.27-1.421-.608-2.03-.338-.677-.744-1.286-1.015-1.963-.338-.676-.608-1.421-.473-2.165.068-.406.135-.744.338-1.083.203-.338.406-.609.676-.879 1.015-1.015 2.232-1.692 2.773-2.91.27-.542.338-1.218.203-1.827-.068-.609-.271-1.218-.474-1.827-.405-1.151-.811-2.436-.676-3.654.068-.609.338-1.218.744-1.624.406-.406.947-.677 1.488-.88 1.082-.338 2.164-.338 3.11-.609.947-.203 1.826-.677 2.299-1.421.474-.744.744-1.556 1.285-2.233.947-1.353 2.367-1.895 3.517-2.03 1.149-.135 2.028.068 2.569.271.271.135.474.203.609.338.135.068.203.135.203.135s-.271-.203-.812-.406-1.42-.406-2.502-.203c-1.082.136-2.434.745-3.381 2.03-.473.609-.744 1.489-1.217 2.233-.473.812-1.488 1.354-2.434 1.557-1.015.27-2.097.27-3.111.609-.541.135-1.014.406-1.353.812-.405.406-.608.947-.676 1.488-.135 1.151.271 2.301.676 3.519.203.609.406 1.218.474 1.895.067.676.067 1.353-.271 2.03-.608 1.286-1.893 2.03-2.84 2.977-.203.271-.473.542-.608.812-.136.271-.271.609-.271.948-.068.676.135 1.353.473 1.962.339.677.677 1.286 1.015 1.962.338.677.608 1.421.608 2.233s-.405 1.557-.946 2.166c-.541.609-1.218 1.015-1.826 1.488-.609.474-1.217.88-1.691 1.489-.473.541-.676 1.286-.608 1.962.067.677.405 1.354.811 1.963s.879 1.15 1.285 1.759c.406.609.744 1.286.947 1.962.203.677.203 1.557-.203 2.166-.406.676-1.015 1.082-1.623 1.421-.609.338-1.217.609-1.758.947a2.01 2.01 0 00-.947 1.489c-.068.609.27 1.218.541 1.692.676 1.015 1.555 1.962 1.758 3.248.203 1.218-.135 2.436-.608 3.451-.474 1.015-1.015 1.894-1.488 2.774-.473.88-.812 1.759-.947 2.639-.135.88 0 1.759.203 2.504.473 1.488 1.488 2.571 2.502 3.112a6.338 6.338 0 002.434.812c.541.068.88.068.88.068z" fill="#333"/><path d="M136.462 198.591s-.067 0-.203-.135a.861.861 0 01-.27-.609c-.068-.339 0-.677.27-1.083.203-.406.677-.744 1.218-.88.541-.203 1.217-.271 1.825-.406.677-.135 1.421-.474 1.759-1.15.203-.339.203-.745.067-1.151-.135-.406-.405-.744-.676-1.15-.27-.406-.541-.812-.609-1.353-.067-.542.136-1.015.406-1.489.271-.474.541-.88.812-1.353.27-.474.473-.948.473-1.489 0-.541-.27-1.015-.676-1.421l-1.285-1.286c-.406-.406-.744-1.082-.609-1.759.068-.338.203-.677.474-.88.203-.27.541-.406.811-.541.609-.271 1.217-.474 1.826-.744.609-.271 1.15-.609 1.555-1.083.406-.541.406-1.218.271-1.827-.135-.677-.474-1.286-.744-1.962-.271-.677-.541-1.354-.676-2.098a4.99 4.99 0 01.338-2.233c.608-1.353 1.555-2.572 1.893-3.993.136-.744 0-1.421-.27-2.097-.338-.677-.744-1.286-1.15-1.963-.406-.676-.744-1.421-.811-2.233-.068-.812.338-1.624.811-2.233.474-.609 1.015-1.15 1.488-1.691.473-.542.879-1.218.947-1.895.067-.677-.136-1.353-.474-1.962-.338-.609-.744-1.218-1.082-1.827-.338-.609-.608-1.354-.608-2.098 0-.744.338-1.421.744-1.962.338-.609.743-1.151 1.014-1.692.27-.541.406-1.218.27-1.759-.27-1.219-1.217-2.166-1.42-3.452-.135-.609.068-1.285.406-1.759s.744-.88 1.15-1.286c.405-.406.743-.744 1.014-1.218.27-.473.338-.947.406-1.421.067-1.015-.203-1.962-.136-2.909.068-.948.339-1.827.812-2.504.879-1.421 2.231-2.165 3.313-2.368 1.15-.271 2.029-.068 2.638.067.608.203.879.339.879.339s-.271-.136-.879-.271a5.368 5.368 0 00-2.57 0c-1.082.271-2.367.947-3.178 2.368-.406.677-.676 1.489-.744 2.436-.068.88.203 1.895.135 2.91 0 .541-.135 1.083-.406 1.556-.27.474-.676.88-1.081 1.286-.406.406-.812.744-1.15 1.218-.338.474-.473 1.015-.338 1.556.203 1.151 1.149 2.098 1.42 3.384.135.677 0 1.353-.271 1.962-.27.609-.676 1.151-1.014 1.76-.338.541-.609 1.15-.676 1.827 0 .676.203 1.285.541 1.894s.744 1.218 1.082 1.827c.338.609.608 1.421.541 2.166-.068.812-.541 1.488-1.015 2.03-.473.609-1.014 1.082-1.487 1.691-.474.609-.744 1.286-.744 2.03 0 .745.338 1.421.744 2.098.405.677.811 1.286 1.149 2.03.338.744.474 1.556.338 2.368-.338 1.557-1.352 2.775-1.893 4.061-.271.676-.406 1.353-.338 2.03.067.676.338 1.353.608 1.962.271.677.541 1.286.744 1.962.203.677.136 1.489-.338 2.098-.406.609-1.082.947-1.69 1.218-.609.271-1.218.474-1.759.744-.541.271-1.082.677-1.149 1.218-.135.542.135 1.083.541 1.557.406.473.879.812 1.217 1.285.406.406.744 1.015.744 1.624 0 .609-.271 1.151-.541 1.624-.271.474-.609.88-.812 1.354-.27.406-.405.879-.338 1.353 0 .474.271.88.541 1.218.271.406.541.744.677 1.15.135.406.135.948-.068 1.286-.473.744-1.217 1.083-1.894 1.218-.676.135-1.284.203-1.825.406-.541.203-.947.474-1.15.812a2.08 2.08 0 00-.27 1.015c.067.542.473.677.405.677z" fill="#4F4F4F"/><path d="M219.841 292.04l-11.767-39.248 3.652-62.254c-7.506-4.06-16.365-7.308-29.078-7.849l-20.286 1.556-22.383 11.098 4.733 37.623 7.574 32.48-4.666 19.827c19.137 13.872 44.631 15.36 72.221 6.767z" fill="#E8505B"/><path d="M202.124 226.808s22.924 1.15 22.924-.744c0-3.857-1.218-14.887-4.463-23.481-2.503-6.496-6.763-11.233-9.062-12.248-5.342-2.165-9.399 36.473-9.399 36.473zM140.317 195.208s-4.328 3.586-8.859 14.413c-5.41 12.789-6.965 15.428-6.965 15.428l13.592 18.338 7.371-8.256-5.139-39.923z" fill="#E8505B"/><path d="M152.286 265.514s0-.068-.068-.135c0-.136-.067-.271-.135-.474-.135-.406-.271-1.015-.406-1.759-.338-1.489-.879-3.654-1.488-6.361a2022.324 2022.324 0 01-4.598-21.112c-1.758-8.256-3.313-15.699-4.463-21.113-.609-2.706-1.014-4.872-1.352-6.428-.136-.744-.271-1.286-.339-1.759-.067-.203-.067-.339-.067-.474v-.135s0 .067.067.135c0 .135.068.271.136.474.135.406.27 1.015.405 1.759.339 1.489.88 3.654 1.488 6.361 1.217 5.413 2.84 12.857 4.598 21.112 1.759 8.255 3.314 15.699 4.464 21.112a908.419 908.419 0 011.42 6.429c.135.744.27 1.285.338 1.759.067.203.067.338.067.474-.067.067 0 .135-.067.135z" fill="#333"/><path opacity=".3" d="M205.572 187.426a14.735 14.735 0 00-10.008-1.827c-3.381.609-6.559 2.368-8.791 5.075l-.338-2.301c-.203 2.504-2.164 5.278-1.893 6.902.27 1.624 1.623 3.113 3.246 3.181 2.299.067 4.463-2.504 6.627-1.624.743.27 1.217.947 1.961 1.218 1.555.744 3.381-.271 4.801-1.286a125.785 125.785 0 004.801-3.586c.879-.677 1.826-1.489 1.893-2.639.068-1.286-1.082-2.369-2.299-3.113z" fill="#333"/><path d="M208.818 191.689c.068.067-1.826.879-3.787 3.383-1.014 1.218-1.893 2.91-2.637 4.872-.744 1.963-1.285 4.196-1.826 6.564-.541 2.368-.744 4.669-.879 6.767a89.002 89.002 0 00-.203 5.616c-.067 1.624-.135 2.91-.203 3.789-.067.474-.067.812-.135 1.015 0 .203-.067.339-.067.339v-.339c0-.27 0-.609.067-1.015.068-.879.068-2.165.068-3.789s.067-3.519.135-5.616c.135-2.098.338-4.399.879-6.835.541-2.368 1.15-4.601 1.894-6.631.743-1.963 1.69-3.654 2.704-4.94a15.067 15.067 0 012.773-2.571c.338-.271.676-.406.879-.542.203-.067.338-.067.338-.067zM189.613 279.048s-.135 0-.338-.068c-.27-.068-.608-.135-.946-.203-.812-.135-2.029-.406-3.517-.744-2.975-.677-7.033-1.828-11.428-3.384-4.395-1.556-8.25-3.248-11.022-4.534-1.353-.676-2.503-1.218-3.246-1.624-.338-.203-.609-.338-.879-.473-.203-.136-.271-.203-.271-.203s.135 0 .338.135c.271.135.541.271.879.406.744.338 1.894.88 3.246 1.489 2.773 1.285 6.627 2.909 11.023 4.466a135.25 135.25 0 0011.36 3.451c1.488.406 2.637.677 3.517.88.405.067.676.203.946.27.203.068.338.136.338.136z" fill="#333"/><path d="M191.169 271.333s-.136 0-.338.068c-.271 0-.609.068-1.015.068-.879.067-2.164.135-3.719.135-3.111.068-7.506-.068-12.24-.541-4.801-.542-9.061-1.354-12.104-2.098-1.555-.338-2.773-.677-3.584-.947-.406-.136-.676-.203-.947-.271-.203-.068-.338-.135-.338-.135s.135 0 .338.067c.271.068.609.136 1.014.203.88.203 2.097.474 3.652.812 3.043.677 7.303 1.489 12.105 1.963 4.733.541 9.061.676 12.239.676h4.734c.067-.067.203 0 .203 0z" fill="#333"/><path opacity=".3" d="M210.982 265.176c-1.217-1.963-3.584-2.843-5.748-3.722a97.989 97.989 0 01-31.985-19.827c-4.396-4.127-8.588-8.729-14.133-11.097-5.545-2.369-13.052-1.692-16.297 3.383l2.028 1.353c10.211 3.384 17.041 12.79 24.412 20.639 5.545 5.887 11.766 11.165 17.92 16.376 3.99 3.383 8.385 6.902 13.592 6.902 5.275 0 10.211-4.196 10.955-9.406.203-1.556.135-3.248-.744-4.601z" fill="#333"/><path d="M107.046 166.516h-1.758c-1.487 0-2.84.88-3.516 2.233-.541 1.218-.473 2.639.27 3.722l2.705 4.195s-2.705 1.489-1.961 4.399c0 0-1.758 1.083-.879 4.737 0 0-1.217 3.045.271 5.21 1.42 2.098 6.018 10.285 6.018 10.285v9l12.172-1.421v-10.421s1.285-2.03 1.826-4.669c.541-2.639-1.42-12.721-1.42-12.721l-5.613-6.496-6.289-2.436s-.676 1.015-.405 2.233c0 .135.067.27.135.473l-.947-.406-2.096-3.789v-.541s5.139-1.151 3.178-2.978c-.338-.406-1.014-.609-1.691-.609z" fill="#FFBE9D"/><path d="M114.755 190.538s.136.136.271.542c.135.338.27.947.068 1.624-.068.338-.339.744-.744.879-.406.203-.879.203-1.353.068-.946-.271-1.555-1.218-2.164-1.962a7.138 7.138 0 00-1.014-1.015c-.406-.271-.812-.339-1.217-.339-.879.068-1.623.068-2.367.136-1.352.067-2.164.067-2.164.067 0-.067.812-.135 2.164-.27a102.15 102.15 0 012.367-.203 2.121 2.121 0 011.42.338c.473.271.811.677 1.149 1.083.609.812 1.218 1.624 2.029 1.894.406.136.812.136 1.15 0a.995.995 0 00.608-.676c.203-.609.136-1.151 0-1.489-.135-.474-.203-.677-.203-.677z" fill="#EB996E"/><path d="M110.225 176.058c0 .067-.271 0-.609-.203a2.79 2.79 0 01-1.082-1.218c-.27-.609-.27-1.218-.135-1.557.068-.406.27-.609.27-.609.068 0-.27 1.015.203 2.03.474 1.083 1.42 1.489 1.353 1.557z" fill="#333"/><path d="M109.143 190.132c.067 0 .067.271-.068.745-.135.473-.338 1.015-.811 1.556a4.673 4.673 0 01-1.42 1.083c-.406.203-.677.203-.744.135-.068-.068 1.014-.406 1.893-1.421.947-1.015 1.082-2.165 1.15-2.098zM116.649 197.17c-.068.068-.811-1.286-2.367-2.166-1.555-.879-3.11-.744-3.043-.812 0-.067.338-.135.947-.135s1.42.203 2.299.677c.812.473 1.42 1.082 1.758 1.556.338.542.474.88.406.88z" fill="#EB996E"/><path d="M116.784 190.605c.474.88.812 1.759 1.015 2.707.135.947.27 2.03.202 2.842-.27 1.556-.946 5.887.068 6.902 1.014 1.015 7.709 6.496 7.709 6.496h4.193s-8.589-5.278-9.738-8.865c-1.15-3.586-.068-5.481-.609-7.646-.608-2.368-2.907-7.105-2.907-7.105l-9.806-16.105-1.623.406 11.496 20.368z" fill="#CBF7E3"/><path d="M116.784 190.606s-.067-.135-.203-.338c-.135-.271-.338-.609-.608-1.083-.541-.947-1.353-2.369-2.367-4.128-2.029-3.586-4.937-8.661-8.385-14.819l-.068-.203.203-.068c.473-.135 1.082-.27 1.623-.406h.135l.068.068c2.908 4.804 6.221 10.285 9.805 16.105.811 1.759 1.623 3.586 2.367 5.481.338.947.744 1.962.744 3.045 0 1.015-.136 2.03-.068 3.045 0 1.015.135 1.962.406 2.842.27.947.744 1.692 1.352 2.436 1.217 1.421 2.637 2.639 4.058 3.722a55.27 55.27 0 004.327 2.977l.474.271h-4.869c-2.637-2.166-5.072-4.196-7.168-6.09-.271-.271-.541-.474-.744-.812-.135-.339-.203-.677-.27-1.015-.068-.677-.068-1.286-.068-1.895.068-1.218.203-2.301.406-3.316.203-.947.135-1.827.067-2.639-.067-.744-.27-1.421-.405-1.894a6.611 6.611 0 00-.474-1.151c-.27 0-.338-.135-.338-.135s.338.474.676 1.489c.203.473.338 1.15.474 1.894.135.745.203 1.692 0 2.639a43.011 43.011 0 00-.338 3.248c0 .609-.068 1.218.067 1.827.068.339.135.609.271.948.135.27.405.473.676.744 2.096 1.827 4.531 3.857 7.168 6.022h-.068 4.193l-.068.271a42.403 42.403 0 01-4.328-3.045c-1.42-1.083-2.907-2.301-4.125-3.789-.608-.745-1.149-1.624-1.42-2.572a10.925 10.925 0 01-.405-2.977c0-1.015.135-2.03.067-2.977 0-1.015-.338-1.963-.676-2.91-.676-1.895-1.555-3.722-2.299-5.481-3.516-5.82-6.83-11.301-9.738-16.105l.136.068c-.541.135-1.15.27-1.623.406l.067-.203c3.449 6.157 6.289 11.232 8.318 14.819.946 1.759 1.758 3.18 2.299 4.128.27.473.473.812.609 1.082 0 .339.067.474.067.474z" fill="#333"/><path d="M104.477 177.207c1.082-1.218 2.772-1.759 4.395-1.556 1.623.135 3.111.88 4.396 1.895 1.285 1.015 2.367 2.233 3.448 3.383.677.744 1.421 1.556 1.623 2.572.203 1.015-.338 2.233-1.352 2.368-1.014.135-1.826-.744-2.502-1.421-.947-1.015-1.961-1.895-3.111-2.639-.676-.474-1.487-.88-2.299-.948-1.014-.135-2.029.203-2.975.542" fill="#FFBE9D"/><path d="M106.032 181.471s.135-.068.338-.135c.203-.068.541-.203.947-.339.406-.135.947-.203 1.555-.203.609 0 1.285.271 1.961.609 1.353.745 2.773 1.895 4.125 3.316.338.338.744.677 1.15.88.406.203.947.203 1.352-.068.406-.271.677-.744.744-1.286.068-.541-.067-1.015-.338-1.556-.541-.947-1.352-1.759-2.096-2.571-.744-.812-1.488-1.557-2.232-2.166-1.487-1.286-3.178-2.03-4.666-2.233-1.487-.135-2.705.271-3.381.677-.744.406-1.014.812-1.014.812s.067-.135.203-.271c.135-.135.405-.406.744-.609.676-.474 1.961-.947 3.448-.812 1.556.135 3.246.88 4.801 2.233.812.609 1.556 1.421 2.232 2.166.744.812 1.555 1.556 2.164 2.639.27.541.473 1.15.338 1.759-.068.609-.338 1.15-.879 1.489-.473.338-1.217.338-1.691.067-.541-.27-.879-.609-1.284-.947-1.353-1.489-2.773-2.571-4.058-3.316-.608-.406-1.285-.609-1.893-.609-.609-.067-1.082.068-1.488.136-.609.203-1.014.338-1.082.338z" fill="#EB996E"/><path d="M104.207 185.396c2.164.541 4.531 0 6.424 1.15.609.406 1.15.88 1.69 1.421 1.015 1.015 1.962 2.03 2.976 3.045.541.542 1.285 1.151 2.029.812.338-.135.541-.541.608-.879.135-.677-.203-1.286-.541-1.895-.676-1.286-1.488-2.571-2.299-3.789-.406-.61-.879-1.219-1.488-1.76-.811-.812-2.028-1.827-2.975-2.165-1.555-.474-2.637-.745-4.193 0" fill="#FFBE9D"/><path d="M106.438 181.336s.067-.068.27-.136c.203-.067.541-.203.947-.27.879-.203 2.096 0 3.516.541.677.338 1.353.88 2.029 1.489.676.609 1.353 1.285 1.894 2.097.54.812 1.149 1.692 1.69 2.639l.812 1.421c.27.474.541 1.083.473 1.692 0 .338-.135.609-.406.88-.203.27-.541.406-.879.406-.676 0-1.15-.474-1.555-.812a70.274 70.274 0 00-2.164-2.233c-.676-.677-1.353-1.421-1.961-1.963-.676-.541-1.42-.879-2.164-1.015-1.488-.27-2.705-.27-3.517-.406-.405-.067-.743-.135-.946-.135-.203-.068-.338-.068-.338-.135 0 0 .473.067 1.284.135.812.068 2.029 0 3.584.271.744.135 1.556.473 2.3 1.015a54.307 54.307 0 012.028 1.962c.677.744 1.42 1.489 2.164 2.233.338.338.812.744 1.285.677.473 0 .879-.474.879-.948.068-.541-.135-1.015-.406-1.556l-.811-1.421c-.541-.947-1.082-1.827-1.691-2.639-.541-.812-1.217-1.489-1.825-2.098-.677-.609-1.285-1.082-1.961-1.488-1.353-.609-2.57-.812-3.382-.677-.676.338-1.149.541-1.149.474zM108.061 169.291c.067.067-1.015.609-2.435 1.015-1.42.406-2.637.338-2.637.27 0-.067 1.15-.203 2.57-.609 1.352-.406 2.502-.812 2.502-.676z" fill="#EB996E"/><path d="M123.411 225.184l-2.908-17.526-12.172 2.233s.609 23.887 1.218 29.774c.946 9.541 5.68 19.624 12.848 17.864 6.694-1.692 14.674-15.699 14.674-15.699l-13.66-16.646z" fill="#FFBE9D"/><path d="M184.474 126.39c.473.744 1.691.609 2.299 0 .609-.677.744-1.557.947-2.436.135-.88.406-1.828 1.082-2.369.676-.541 1.961-.474 2.232.338-.541-1.421 1.149-3.112 2.637-2.571.203-1.421 1.623-2.571 3.043-2.571 1.42 0 2.772 1.15 2.975 2.639.609-.677 1.691-.88 2.502-.406.812.406 1.285 1.421 1.082 2.3 1.826.136 3.043 2.64 1.961 4.196 1.082.135 2.097.947 2.367 2.03.271 1.083-.203 2.301-1.082 2.91.744 1.421-.676 3.518-2.299 3.315-.947 1.76-3.449 2.369-5.139 1.286-3.382 1.353-7.439.88-10.347-1.286" fill="#333"/><path d="M185.218 135.728c-.135-2.166-1.893-3.925-4.057-3.993l-22.721-4.127c-7.168-.271-11.361 8.864-11.293 16.037.067 7.985.405 17.796 1.758 23.683 2.705 11.842 11.969 12.722 11.969 12.722 0-.068.068 3.722.338 8.932.338 7.105 6.492 12.519 13.592 11.977a12.62 12.62 0 0011.631-12.857l-1.217-52.374z" fill="#FFBE9D"/><path d="M151.136 152.171c0 .812.744 1.489 1.556 1.421.879 0 1.487-.677 1.487-1.489s-.744-1.489-1.555-1.421c-.812 0-1.488.677-1.488 1.489zM149.784 147.773c.203.203 1.285-.745 2.975-.88 1.623-.135 2.908.609 3.111.406.067-.068-.135-.474-.676-.812-.541-.338-1.488-.677-2.502-.609-1.015.068-1.894.541-2.367.947-.474.542-.676.88-.541.948zM166.622 151.697c0 .812.744 1.489 1.555 1.421.879 0 1.488-.676 1.488-1.488 0-.812-.744-1.489-1.555-1.421-.88 0-1.556.676-1.488 1.488zM166.081 147.773c.203.203 1.285-.745 2.975-.88 1.623-.135 2.908.609 3.111.406.068-.068-.135-.474-.676-.812-.541-.338-1.488-.677-2.502-.609-1.015.068-1.894.541-2.367.947-.473.474-.676.88-.541.948zM160.942 160.426c0-.067-1.015-.203-2.705-.27-.406 0-.812-.068-.947-.339-.135-.27 0-.744.203-1.285.338-1.015.676-2.166 1.014-3.316 1.42-4.669 2.435-8.526 2.232-8.594-.203-.067-1.488 3.722-2.908 8.391-.338 1.15-.676 2.233-.947 3.316-.135.473-.338 1.082-.135 1.691.135.339.473.542.744.542.27.067.541.067.744.067 1.623-.067 2.705-.135 2.705-.203z" fill="#333"/><path d="M160.874 180.05s8.047 0 15.688-5.346c0 0-3.448 8.526-15.485 8.188l-.203-2.842z" fill="#EB996E"/><path d="M164.999 143.509c.203.406 1.826.136 3.787.203 1.961.068 3.584.542 3.787.068.067-.203-.203-.609-.879-1.015-.677-.406-1.691-.744-2.841-.812-1.149-.068-2.231.203-2.907.541-.677.474-1.015.812-.947 1.015zM150.122 143.78c.338.339 1.42-.135 2.772-.203 1.353-.135 2.57.068 2.773-.338.135-.203-.135-.541-.609-.88-.541-.338-1.352-.541-2.299-.473-.946.067-1.758.473-2.164.879-.473.406-.608.812-.473 1.015z" fill="#333"/><path d="M155.532 127.337c-.676 1.489 2.164 4.195 3.719 4.737 1.623.541 3.584.27 4.395 1.691.947 1.624-1.014 4.196 2.232 5.955 1.014.541 2.502-.609 3.381.203 1.082.947-.338 2.639-.27 4.06.067 2.775 5.139 3.045 5.477 5.752.203 1.759-1.758 3.383-1.082 5.007.676 1.624 3.449 1.489 4.193 3.181.879 2.097-2.705 3.992-2.232 6.225.474 2.233 4.193 2.233 4.937 4.398.676 1.827-1.42 3.858-.744 5.685.811 2.097 4.328 1.759 5.274 3.789 1.15 2.436-2.705 5.278-1.42 7.579.406.812 1.42 1.082 2.029 1.759 1.893 2.165 1.758 6.97-.203 8.864h1.42c4.26-.067 8.25-2.3 10.549-5.887l1.15 2.707c3.719-1.218 6.694-3.654 9.67-6.158 1.488-1.285 3.516-1.691 5.477-1.218l.812.203c2.502.203 5.815-1.082 7.912-2.436-2.773-.541-4.261-3.586-4.937-6.293-.676-2.706-1.082-5.751-3.178-7.714-2.232-2.098-6.086-2.571-7.168-5.413-.812-2.233.676-4.872-.068-7.105-.744-2.301-3.448-3.451-4.463-5.617-1.42-2.977.609-6.902-1.149-9.676-1.961-2.978-7.236-2.572-8.724-5.82-.811-1.827-.135-4.263-1.555-5.616-1.15-1.083-3.111-.947-4.26-1.962-1.758-1.557-.879-4.669-2.435-6.429-2.096-2.368-6.289-.27-8.926-1.962-1.69-1.083-2.231-3.316-3.854-4.466-2.232-1.489-5.14-.136-7.709.744-1.961.677-4.058 1.083-5.951 1.895-1.894.812-3.719 2.233-4.396 4.195-.743 1.963.136 4.466 2.097 5.143z" fill="#333"/><path d="M218.556 173.892l.203.203c.135.135.338.271.541.541.203.271.541.542.811.948.271.406.541.947.677 1.624.067.676-.068 1.421-.609 2.03-.271.338-.676.541-1.082.609a1.495 1.495 0 01-1.285-.406c-.744-.677-1.014-1.692-1.149-2.707-.068-1.083 0-2.165 0-3.316.067-1.15.135-2.368.338-3.586.067-.609.203-1.286.27-1.895a6.259 6.259 0 00.135-1.962c-.067-.677-.338-1.286-.879-1.624-.541-.338-1.285-.406-1.961-.338-.676.067-1.42.135-2.231.135a2.72 2.72 0 01-2.097-1.015c-.473-.677-.676-1.489-.743-2.233-.068-.812.067-1.624.202-2.368.068-.812.203-1.557.068-2.369-.135-.744-.473-1.488-1.15-1.962-.608-.474-1.42-.744-2.231-1.083-.812-.338-1.488-.947-1.961-1.759-.879-1.557-.879-3.451-.812-5.143 0-.88 0-1.759-.135-2.571-.135-.812-.406-1.624-.879-2.301-1.014-1.353-2.637-1.895-4.125-2.571-.744-.339-1.488-.677-2.164-1.218-.676-.474-1.217-1.218-1.488-1.963-.27-.812-.27-1.624-.338-2.368-.067-.744-.27-1.489-.811-1.962-.541-.474-1.285-.677-1.961-.812-.744-.136-1.488-.271-2.164-.542-.676-.27-1.285-.812-1.555-1.488a5.428 5.428 0 01-.406-2.03c-.068-1.354-.068-2.707-.676-3.722-.609-1.083-1.623-1.76-2.705-2.166-1.082-.406-2.164-.541-3.179-.609-1.014-.067-2.028-.067-2.907-.067-.947-.068-1.758-.136-2.57-.271a9.099 9.099 0 01-2.029-.812c-1.149-.677-1.758-1.489-2.028-2.165-.271-.609-.271-1.015-.271-1.015s.068.338.338.947c.271.609.879 1.421 2.029 2.03a5.64 5.64 0 001.961.744c.744.203 1.623.271 2.502.271.879 0 1.894 0 2.908.068 1.014.067 2.164.203 3.246.609 1.082.406 2.164 1.082 2.84 2.233.676 1.15.608 2.571.744 3.857.067.677.135 1.353.405 1.962.271.609.812 1.083 1.421 1.354.608.27 1.352.338 2.096.473.744.136 1.488.339 2.164.88.608.541.879 1.421.946 2.165.068.812.136 1.557.339 2.301.27.744.743 1.353 1.352 1.827.609.474 1.352.812 2.096 1.15.744.339 1.556.677 2.299 1.083.744.406 1.488.947 2.029 1.624.541.744.812 1.556.947 2.436.135.88.135 1.759.135 2.639-.067 1.759 0 3.519.812 5.008.405.744 1.014 1.218 1.758 1.624.744.338 1.555.609 2.231 1.15.744.474 1.15 1.353 1.285 2.165s0 1.624-.067 2.436a13.75 13.75 0 00-.203 2.301c.067.744.203 1.489.676 2.098.406.541 1.149.812 1.826.879.744.068 1.42-.067 2.164-.067.743-.068 1.487 0 2.164.406.676.406.946 1.15 1.014 1.827.067.676 0 1.353-.135 2.03-.136.676-.203 1.285-.271 1.894-.135 1.218-.27 2.436-.338 3.587-.068 1.15-.135 2.233-.068 3.248.068 1.015.406 1.962 1.015 2.571.338.271.744.406 1.149.339a1.864 1.864 0 001.015-.542 2.56 2.56 0 00.608-1.895c-.067-.609-.338-1.15-.608-1.556a6.628 6.628 0 00-.744-.947c-.203-.271-.406-.406-.541-.542-.135-.27-.203-.338-.203-.338z" fill="#333"/><path d="M192.386 191.215s.135-.068.338-.135a7.79 7.79 0 00.947-.406c.406-.203.879-.474 1.285-1.015.338-.474.608-1.354.203-2.098-.203-.338-.609-.609-1.015-.744-.473-.136-.946-.203-1.42-.406a1.618 1.618 0 01-.744-.406 1.125 1.125 0 01-.338-.812c0-.609.338-1.151.609-1.692.338-.541.541-1.083.608-1.692a3.395 3.395 0 00-.338-1.827c-.541-1.15-1.961-2.03-3.448-1.827h-.136v-.135c-.067-1.083.406-2.098.947-2.977.609-.88 1.285-1.76 1.758-2.775a5.717 5.717 0 00.406-1.624c0-.541-.135-1.082-.473-1.488-.744-.88-1.961-1.083-3.111-1.557-.541-.27-1.15-.676-1.42-1.286-.271-.609-.203-1.353 0-1.962.406-1.218 1.217-2.368 1.15-3.586 0-.609-.271-1.218-.744-1.692-.406-.474-.947-.88-1.488-1.218-1.082-.677-2.434-1.15-3.516-2.03-.677-.541-1.218-1.286-1.353-2.165-.203-.88 0-1.76.271-2.504.203-.812.541-1.556.676-2.368.068-.406.135-.745.067-1.151-.067-.338-.135-.744-.338-1.015-.405-.609-1.082-1.015-1.825-1.218-.744-.27-1.488-.473-2.164-.879-.677-.406-1.218-1.083-1.353-1.895s0-1.556.135-2.233c.136-.744.339-1.421.406-2.098.068-.677.068-1.353-.203-1.962-.27-.609-.744-1.083-1.285-1.421a5.723 5.723 0 00-1.758-.745c-1.217-.338-2.502-.406-3.651-.879-.609-.203-1.15-.474-1.556-.88a3.759 3.759 0 01-1.014-1.353c-.541-1.015-.811-2.03-1.217-2.91a6.043 6.043 0 00-1.691-2.165c-1.42-1.015-3.043-1.218-4.192-.948-1.218.271-2.029.88-2.435 1.286-.473.474-.676.744-.676.744s.135-.338.609-.744a5.047 5.047 0 012.502-1.353c1.217-.339 2.907-.203 4.328.879a5.317 5.317 0 011.758 2.233c.405.88.744 1.963 1.217 2.91.27.474.541.947 1.014 1.286.406.338.947.609 1.488.812 1.15.406 2.367.473 3.652.812.608.203 1.284.406 1.893.744.609.338 1.082.88 1.42 1.556.271.677.271 1.421.203 2.166-.068.744-.271 1.421-.406 2.165-.135.677-.27 1.421-.135 2.166.135.676.541 1.285 1.217 1.691.609.339 1.353.542 2.096.812.744.271 1.556.609 1.961 1.354.271.338.339.812.406 1.218 0 .406 0 .879-.067 1.218-.136.812-.474 1.556-.677 2.368-.202.744-.405 1.556-.202 2.368.135.812.608 1.489 1.284 1.963 1.015.879 2.3 1.285 3.517 2.03.608.338 1.149.744 1.555 1.285a3.41 3.41 0 01.812 1.895c.067 1.421-.812 2.571-1.15 3.722-.203.609-.271 1.218 0 1.691.27.542.744.88 1.285 1.151.541.271 1.149.406 1.69.677.541.203 1.15.541 1.556 1.015a2.39 2.39 0 01.541 1.759c0 .609-.203 1.15-.406 1.692-.473 1.082-1.217 1.894-1.758 2.774-.609.88-1.015 1.827-.947 2.774l-.135-.135c1.555-.135 3.043.744 3.719 2.03.609 1.286.406 2.774-.271 3.789-.27.542-.608 1.015-.608 1.557 0 .541.473.947.947 1.082.473.136.946.203 1.42.406.473.136.879.406 1.082.812.202.406.202.88.135 1.218-.068.406-.203.745-.406 1.015-.406.542-.947.812-1.352 1.015-1.218.136-1.691.271-1.691.271z" fill="#4F4F4F"/><path d="M211.591 184.922s.27-.271.473-.947c.203-.609.406-1.76-.203-2.91-.27-.609-.811-1.15-1.487-1.489-.339-.203-.744-.406-1.082-.676-.339-.271-.677-.677-.744-1.218-.136-1.015.541-1.963.541-2.978 0-.474-.271-1.015-.744-1.286-.406-.338-.947-.541-1.488-.812-.541-.27-1.149-.473-1.623-.879a2.397 2.397 0 01-.946-1.692c-.203-1.353.202-2.707.27-4.06 0-.677-.068-1.353-.473-1.962-.406-.542-1.015-.88-1.691-1.218-.676-.271-1.42-.474-2.096-.88-.676-.338-1.285-1.083-1.42-1.895-.136-.812.067-1.624.135-2.436.068-.744.068-1.624-.406-2.233-.473-.609-1.285-.879-2.096-1.15-.744-.271-1.623-.677-2.164-1.421-.541-.744-.541-1.759-.473-2.639.067-.88.405-1.759.676-2.572.27-.812.473-1.691.338-2.571-.068-.88-.609-1.624-1.285-2.098-.744-.473-1.623-.676-2.502-.879-.879-.203-1.758-.339-2.637-.542-.879-.27-1.691-.609-2.367-1.285a6.649 6.649 0 01-1.352-2.301c-.541-1.692-.677-3.383-1.015-4.94-.203-.812-.405-1.556-.744-2.233a5.105 5.105 0 00-1.555-1.624c-1.352-.744-2.975-.541-4.395-.473-.744.067-1.488.067-2.232-.068a5.332 5.332 0 01-2.029-.812c-1.149-.88-1.758-2.165-2.502-3.18-.405-.542-.743-1.015-1.217-1.421a7.205 7.205 0 00-1.488-1.015c-2.096-1.015-4.395-.88-6.153-.339-1.758.542-3.111 1.489-4.125 2.369a21.262 21.262 0 00-2.164 2.165c-.203.271-.406.474-.541.609l-.203.203s.068-.068.135-.203c.136-.135.271-.338.474-.609.473-.541 1.149-1.353 2.164-2.233 1.014-.88 2.366-1.827 4.192-2.436a8.716 8.716 0 016.357.338 7.68 7.68 0 011.555 1.015c.473.406.879.948 1.285 1.489.744 1.083 1.42 2.301 2.502 3.113.541.406 1.217.676 1.893.812.677.135 1.42.067 2.164.067.744-.067 1.488-.135 2.299-.067.744 0 1.556.135 2.3.541a4.704 4.704 0 011.69 1.759c.406.745.609 1.557.812 2.369.338 1.624.473 3.315 1.014 4.872.27.812.676 1.556 1.285 2.165.541.609 1.352.947 2.231 1.218.812.271 1.691.406 2.57.541.879.203 1.758.406 2.57.88a3.453 3.453 0 011.487 2.368c.136.948-.135 1.827-.338 2.707-.27.88-.541 1.692-.608 2.504-.136.812-.068 1.692.405 2.368.406.677 1.218 1.015 1.961 1.286.744.271 1.623.609 2.232 1.286.27.338.473.744.541 1.218.068.406 0 .879 0 1.218-.068.812-.271 1.556-.135 2.3a2.347 2.347 0 001.285 1.692c.676.338 1.352.609 2.096.88.676.27 1.42.676 1.826 1.285.473.609.541 1.421.541 2.098-.068 1.421-.474 2.774-.271 3.992.068.609.406 1.151.879 1.557.474.406 1.015.609 1.556.879.541.271 1.081.474 1.555.812.473.339.811.948.811 1.489 0 1.151-.676 2.03-.608 2.91.067.474.338.812.676 1.083.338.27.676.473 1.082.676.744.406 1.285 1.015 1.555 1.624a3.714 3.714 0 01.135 3.045c-.608.609-.946.88-.946.88z" fill="#4F4F4F"/><path d="M163.038 165.772c-.541-.744-.474-1.895.067-2.639.609-.744 1.691-.947 2.57-.609.541.271.947.744 1.285 1.218.338.541.676 1.15.473 1.759-.135.474-.541.88-1.014 1.151-.676.406-1.555.473-2.299.203-.744-.271-1.353-.88-1.556-1.692" fill="#EB996E"/><path d="M166.892 162.253c.136 0 .203.406 0 1.015-.203.609-.676 1.421-1.487 1.963-.812.609-1.691.812-2.3.812-.608 0-1.014-.136-1.014-.271 0-.271 1.42-.406 2.705-1.353 1.285-.948 1.826-2.233 2.096-2.166z" fill="#333"/><path d="M124.155 208.267c-.338-1.015 0-2.233.744-2.977.744-.812 1.826-1.218 2.908-1.286.946-.068 1.961.068 2.772.541.812.474 1.556 1.218 1.758 2.098.338 1.151-.067 2.436-.879 3.316-.811.88-1.961 1.353-3.178 1.489-1.014.067-2.029-.136-2.84-.812-.676-.677-1.285-1.624-1.285-2.369z" fill="#E8505B"/><path d="M114.079 212.057c-3.99 1.082-8.385-3.113-9.602-6.023-.135-.27-.203-.677-.068-.947.203-.271.609-.339.947-.271 2.029.135 3.99.88 5.545 2.166 1.555 1.285 2.637 3.112 3.178 5.075z" fill="#4F4F4F"/><path d="M109.278 210.162c-.338-1.015 0-2.233.744-2.977.744-.812 1.826-1.218 2.908-1.286.946-.068 1.961.068 2.772.541.812.474 1.556 1.218 1.758 2.098.339 1.15-.067 2.436-.879 3.316-.811.879-1.961 1.353-3.178 1.488-1.014.068-2.029-.135-2.84-.812-.676-.676-1.285-1.556-1.285-2.368z" fill="#E8505B"/><path d="M130.376 209.35c-.135-2.098 1.15-4.804 2.232-6.631 1.082-1.827 2.772-3.249 4.733-4.128.136-.068.271-.136.406-.068s.203.203.271.338c1.082 2.369.743 5.346-.812 7.444-1.555 2.165-4.26 3.316-6.83 3.045zM144.847 204.546c.677-1.015 1.421-2.03 1.894-3.181.473-1.15.811-2.368.609-3.586 0-.203-.068-.406-.203-.474-.136-.068-.338-.068-.541 0a11.257 11.257 0 00-5.681 3.993 11.52 11.52 0 00-2.299 6.563l-.067.609c2.096 1.015 4.26 1.083 6.491.474 1.691-.474 3.449-1.218 4.802-2.368 1.42-1.151 2.434-2.775 2.704-4.534-2.704-.406-5.612.541-7.709 2.504zM119.286 202.989c-2.029-1.827-4.801-2.639-7.506-3.045-.135 2.707.879 5.481 2.773 7.444 1.825 1.962 4.53 3.18 7.235 3.248l.135-.271c.677-2.707-.608-5.617-2.637-7.376z" fill="#4F4F4F"/><path d="M105.694 210.162s4.734 16.24 14.133 21.991c12.307 7.512 30.768-2.503 32.324-6.428 1.555-3.925 4.328-19.894 4.328-19.894l-50.785 4.331z" fill="#CBF7E3"/><path d="M105.694 210.162h.271c.202 0 .405-.068.743-.068.677-.067 1.623-.135 2.841-.27 2.502-.203 6.086-.542 10.616-.948 9.062-.812 21.775-1.895 36.381-3.18h.203l-.068.203c-.879 4.94-1.825 10.082-3.043 15.428a47.332 47.332 0 01-.879 3.316c-.067.27-.203.541-.27.812-.068.135-.068.27-.135.406l-.203.406c-.338.473-.744.947-1.15 1.285-1.69 1.557-3.584 2.639-5.545 3.654-1.961.948-3.922 1.76-5.951 2.369a38.11 38.11 0 01-6.018 1.285c-3.99.474-7.912.068-11.225-1.285-3.314-1.354-5.816-3.722-7.777-6.023-1.961-2.368-3.313-4.669-4.463-6.834a42.927 42.927 0 01-2.57-5.616c-.608-1.557-1.082-2.775-1.352-3.654-.135-.406-.203-.745-.271-.948-.135-.27-.135-.406-.135-.338 0 0 .068.135.135.338.068.203.203.542.338.948.271.812.744 2.097 1.421 3.654.676 1.556 1.487 3.451 2.637 5.548 1.149 2.098 2.569 4.466 4.463 6.767 1.893 2.301 4.395 4.601 7.709 5.887 3.246 1.353 7.1 1.692 11.022 1.286 3.922-.474 7.98-1.692 11.834-3.654 1.894-1.015 3.855-2.098 5.478-3.587.405-.406.811-.812 1.082-1.218l.203-.338c.067-.135.067-.271.135-.406.067-.271.203-.541.27-.812.338-1.083.609-2.165.879-3.316 1.218-5.278 2.164-10.488 3.043-15.36l.203.203c-14.539 1.218-27.184 2.233-36.245 2.977-4.531.339-8.115.677-10.617.88-1.217.068-2.232.203-2.84.203-.338 0-.541.068-.744.068-.338-.068-.406-.068-.406-.068z" fill="#333"/><path d="M118.137 228.635s-.203-.135-.609-.541c-.338-.339-.879-.88-1.42-1.489-1.217-1.286-2.705-3.18-4.193-5.481a45.097 45.097 0 01-3.381-6.022c-.338-.812-.676-1.489-.811-1.895-.203-.474-.271-.744-.271-.744s.135.203.338.676c.203.474.541 1.083.947 1.895.811 1.556 1.961 3.722 3.449 5.955a59.949 59.949 0 004.125 5.481c.541.676 1.014 1.218 1.352 1.556.271.339.474.542.474.609zM153.774 208.538s-.136.068-.474.068c-.338.067-.811.135-1.352.203-1.15.135-2.84.338-5.004.609-4.193.473-10.008 1.015-16.433 1.556-6.424.474-12.239.812-16.499.947-2.097.068-3.855.136-5.005.136H107.182s.135 0 .473-.068c.338 0 .811-.068 1.352-.068 1.218-.067 2.908-.135 5.005-.27 4.192-.203 10.075-.609 16.499-1.083a720.711 720.711 0 0016.433-1.421c2.096-.203 3.787-.338 5.004-.474.541-.067 1.014-.067 1.352-.135h.474z" fill="#fff"/><path d="M200.839 227.214l-3.381 17.526-34.826-18.473-7.844 8.255s33.203 30.383 40.1 35.932c6.898 5.481 16.433-.88 19.205-11.165 2.773-10.286 6.424-23.616 7.506-32.21l-20.76.135z" fill="#FFBE9D"/><path d="M165.608 228.365s-10.076-7.647-13.66-6.835c-1.42.338-2.435.677-3.111 1.015-1.217.541-2.502.88-3.787.88-1.284 0-2.975 0-4.598-.068-3.111-.135-4.057.677-4.328 1.895-.27 1.15.541 2.233 1.758 2.368 1.894.136 4.734.406 5.951.812 1.894.609-.338.203-2.637 1.76-2.367 1.488-11.834 1.827-11.834 1.827l-5.139-3.925c-1.42-1.083-3.381.406-2.638 2.03 0 0 0 .068.068.068l-.473-.474c-1.15-1.15-3.043.135-2.367 1.624v.068l4.192 4.06 6.357 2.639 11.022-1.083s8.115-2.977 9.67-3.451c1.556-.474 6.695 1.015 10.685 5.413l4.869-10.623z" fill="#FFBE9D"/><path d="M205.843 260.033c-.068 0-.338-.947-.947-2.436a39.765 39.765 0 00-2.637-5.752c-1.217-2.165-2.434-3.992-3.449-5.278-.947-1.286-1.623-2.03-1.555-2.098 0 0 .203.136.541.474.338.339.744.812 1.285 1.489 1.014 1.286 2.366 3.113 3.516 5.278 1.217 2.165 2.029 4.263 2.57 5.819.27.745.473 1.421.541 1.827.135.406.203.609.135.677zM140.587 236.891s-.338.067-.946.135c-.609.068-1.488.203-2.57.271-2.164.203-5.207.406-8.52.541-.812.068-1.691.068-2.503-.135a6.62 6.62 0 01-2.096-.948c-1.217-.812-2.096-1.827-2.84-2.639a20.781 20.781 0 01-1.623-2.03c-.406-.474-.609-.744-.541-.744 0 0 .271.203.676.676.474.542 1.015 1.151 1.691 1.963.744.812 1.623 1.759 2.84 2.504.609.406 1.285.676 2.029.879.744.136 1.555.136 2.367.136 3.381-.136 6.356-.271 8.52-.474 1.014-.068 1.893-.135 2.57-.135h.946z" fill="#EB996E"/><path d="M137.882 236.62s-.202.068-.676.068h-1.758c-1.488 0-3.584 0-6.018-.068a8.456 8.456 0 01-1.082-.271c-.609-.203-1.285-.406-1.826-.744a8.11 8.11 0 01-1.42-1.151c-.744-.879-1.353-1.691-1.894-2.368-.541-.677-.879-1.286-1.149-1.692-.271-.406-.406-.609-.338-.676 0 0 .202.203.473.609.27.406.744.947 1.285 1.624.541.676 1.217 1.488 1.893 2.3.744.88 1.826 1.421 3.043 1.76.338.067.744.203 1.082.271 2.367.067 4.463.135 5.951.203.676.067 1.285.067 1.758.067.406.068.676.068.676.068zM150.663 229.583c0 .067-1.353-.271-2.975-.474-1.623-.203-2.976-.271-2.976-.338 0-.068 1.353-.203 3.043 0 1.691.203 2.976.744 2.908.812z" fill="#EB996E"/><path d="M193.874 136.337s-.203.067-.541 0c-.338-.068-.879-.203-1.353-.542-.541-.338-1.014-1.015-1.285-1.827-.202-.812-.202-1.759-.473-2.571a1.749 1.749 0 00-.744-.947 3.316 3.316 0 00-1.149-.406 3.334 3.334 0 01-1.15-.406 2.868 2.868 0 01-.811-.745c-.339-.541-.474-1.015-.609-1.353-.068-.338-.135-.541-.068-.541 0 0 .068.203.203.473.135.339.338.812.676 1.286.203.203.406.474.744.609.271.135.677.271 1.082.338.406.068.812.203 1.285.406.406.271.744.677.879 1.151.338.947.271 1.894.474 2.639.202.744.608 1.353 1.081 1.691.947.745 1.759.677 1.759.745zM206.519 125.172s.068.135.203.338c.068.271.135.609-.068 1.083a1.617 1.617 0 01-1.284 1.15c-.677.135-1.556-.068-2.097-.812h.271c-.338 1.015-1.217 1.962-2.435 2.436-.608.203-1.284.271-1.961.068a4.876 4.876 0 01-1.825-1.015 3.73 3.73 0 01-1.015-1.895l.271.068c-1.15 1.015-2.57 1.556-3.787 1.827-1.285.27-2.435.135-3.381-.068a7.104 7.104 0 01-2.097-.812c-.202-.135-.405-.271-.541-.338-.067-.068-.135-.068-.135-.068 0-.068.947.677 2.84 1.015.947.203 2.029.203 3.246-.068a8.675 8.675 0 003.652-1.759l.203-.203.067.271c.136.609.474 1.218.947 1.759.473.474 1.014.812 1.623.947.609.136 1.217.136 1.758-.067a3.508 3.508 0 002.299-2.166l.068-.27.135.27c.406.677 1.217.88 1.758.745a1.606 1.606 0 001.15-1.015c.203-.406.135-.812.135-1.015.068-.271 0-.406 0-.406zM200.298 118.134s.135 0 .27.136c.136.135.271.406.203.812-.067.406-.405.744-.879.879-.473.136-1.082.068-1.623-.135l.203-.203c.474 1.015-.203 2.436-1.352 3.045-.947.474-1.961.541-2.773.609-.879 0-1.69 0-2.299-.271-.676-.203-1.082-.609-1.285-.947-.203-.338-.203-.541-.203-.541s.068.203.338.473c.203.271.609.609 1.218.812.608.203 1.352.203 2.231.136.879-.068 1.826-.136 2.637-.542 1.015-.541 1.556-1.759 1.218-2.639l-.136-.338.339.135c.541.203 1.014.339 1.42.203.405-.067.743-.406.811-.676.068-.271 0-.542-.068-.677l-.27-.271z" fill="#4F4F4F"/></g><defs><clipPath id="clip0"><path fill="#fff" d="M0 0h442v375H0z"/></clipPath></defs></svg>