<svg width="30" height="30" viewBox="0 0 30 30" fill="none" xmlns="http://www.w3.org/2000/svg">
<rect width="30" height="30" rx="5" fill="#43D190"/>
<path d="M22.5 7.5H21.6667V5.83328C21.6667 5.37338 21.2933 5 20.8333 5H20C19.5399 5 19.1667 5.37338 19.1667 5.83328V7.5H10.8333V5.83328C10.8333 5.37338 10.4601 5 10 5H9.16672C8.70667 5 8.33328 5.37338 8.33328 5.83328V7.5H7.5C6.12167 7.5 5 8.62167 5 10V22.5C5 23.8783 6.12167 25 7.5 25H22.5C23.8783 25 25 23.8783 25 22.5V10C25 8.62167 23.8783 7.5 22.5 7.5ZM23.3333 22.5C23.3333 22.9591 22.9591 23.3333 22.5 23.3333H7.5C7.04086 23.3333 6.66672 22.9591 6.66672 22.5V13.3667H23.3333V22.5Z" fill="white"/>
<rect x="8" y="15" width="3.5" height="2.5" rx="0.8" fill="white"/>
<rect x="13" y="15" width="3.5" height="2.5" rx="0.8" fill="white"/>
<rect x="18" y="15" width="3.5" height="2.5" rx="0.8" fill="white"/>
<rect x="8" y="19" width="3.5" height="2.5" rx="0.8" fill="white"/>
<rect x="13" y="19" width="3.5" height="2.5" rx="0.8" fill="white"/>
</svg>
