<svg width="30" height="30" viewBox="0 0 30 30" xmlns="http://www.w3.org/2000/svg">
<rect width="30" height="30" rx="5"/>
<path d="M24 6H21V5H9V6H6C5.4 6 5 6.4 5 7V9.4C5 11.7 6.7 13.6 9 13.9V14C9 16.9 11 19.3 13.7 19.9L13 22H10.7C10.3 22 9.9 22.3 9.8 22.7L9 25H21L20.2 22.7C20.1 22.3 19.7 22 19.3 22H17L16.3 19.9C19 19.3 21 16.9 21 14V13.9C23.3 13.6 25 11.7 25 9.4V7C25 6.4 24.6 6 24 6ZM9 11.9C7.9 11.6 7 10.6 7 9.4V8H9V11.9ZM17 15L15 13.9L13 15L13.5 13L12 11H14.1L15 9L15.9 11H18L16.5 13L17 15ZM23 9.4C23 10.6 22.1 11.7 21 11.9V8H23V9.4Z" fill="white"/>
</svg>